<?xml version="1.0" encoding="utf-8"?>
<!-- Generator: Adobe Illustrator 16.0.4, SVG Export Plug-In . SVG Version: 6.00 Build 0)  -->
<!DOCTYPE svg PUBLIC "-//W3C//DTD SVG 1.1//EN" "http://www.w3.org/Graphics/SVG/1.1/DTD/svg11.dtd">
<svg version="1.1" id="Layer_1" xmlns="http://www.w3.org/2000/svg" xmlns:xlink="http://www.w3.org/1999/xlink" x="0px" y="0px"
	 width="612px" height="792px" preserveAspectRatio="none" enable-background="new 0 0 612 792" xml:space="preserve">
<g>
	<g>
		<path fill="#FFFFFF" d="M19.695,385.945c0.234,9.585,1.405,12.624,4.561,13.561c2.222,0.586,4.795,0.697,5.847,0.697
			c0.585,0,0.934,0.24,0.934,0.708c0,0.697-0.7,0.932-2.103,0.932c-6.666,0-11.341-0.352-12.395-0.352
			c-1.051,0-5.961,0.352-11.225,0.352c-1.171,0-1.871-0.112-1.871-0.932c0-0.468,0.352-0.708,0.934-0.708
			c0.937,0,3.042-0.111,4.795-0.697c2.921-0.819,3.507-4.209,3.507-14.849l0.12-67c0-4.556,0.349-5.844,1.285-5.844
			c0.934,0,2.922,2.57,4.09,3.741c1.754,1.985,19.176,20.81,37.184,40.103c11.575,12.4,24.319,26.658,28.061,30.517l-1.285-59.395
			c-0.117-7.6-0.934-10.171-4.561-11.107c-2.105-0.469-4.792-0.585-5.729-0.585c-0.819,0-0.934-0.351-0.934-0.814
			c0-0.708,0.934-0.82,2.336-0.82c5.264,0,10.874,0.351,12.161,0.351c1.286,0,5.147-0.351,9.939-0.351
			c1.285,0,2.105,0.112,2.105,0.82c0,0.463-0.469,0.814-1.288,0.814c-0.583,0-1.402,0-2.805,0.351
			c-3.859,0.82-4.327,3.391-4.327,10.405l-0.234,68.517c0,7.717-0.234,8.303-1.051,8.303c-0.937,0-2.339-1.288-8.534-7.483
			c-1.288-1.171-18.125-18.356-30.52-31.688c-13.561-14.614-26.776-29.346-30.518-33.556L19.695,385.945z"/>
		<path fill="#FFFFFF" d="M129.488,367.935c0,11.224,0,20.464,0.583,25.376c0.351,3.384,1.054,5.96,4.561,6.423
			c1.636,0.24,4.21,0.469,5.261,0.469c0.703,0,0.937,0.357,0.937,0.708c0,0.58-0.585,0.932-1.871,0.932
			c-6.432,0-13.797-0.352-14.383-0.352c-0.583,0-7.949,0.352-11.456,0.352c-1.288,0-1.873-0.234-1.873-0.932
			c0-0.351,0.234-0.708,0.937-0.708c1.051,0,2.456-0.229,3.507-0.469c2.339-0.463,2.924-3.039,3.39-6.423
			c0.585-4.913,0.585-14.152,0.585-25.376v-20.581c0-18.233,0-21.512-0.234-25.248c-0.234-3.981-1.402-5.966-3.976-6.552
			c-1.285-0.352-2.805-0.468-3.625-0.468c-0.468,0-0.934-0.234-0.934-0.703c0-0.703,0.583-0.931,1.868-0.931
			c3.861,0,11.227,0.351,11.81,0.351c0.585,0,7.951-0.351,11.461-0.351c1.285,0,1.868,0.229,1.868,0.931
			c0,0.469-0.465,0.703-0.934,0.703c-0.82,0-1.52,0.117-2.925,0.351c-3.156,0.586-4.09,2.571-4.324,6.669
			c-0.234,3.736-0.234,7.015-0.234,25.248V367.935z"/>
	</g>
	<g>
		<path fill="#FFFFFF" d="M162.537,390.853c-11.341-10.171-14.146-23.503-14.146-34.604c0-7.834,2.69-21.518,13.095-31.922
			c7.015-7.014,17.656-12.512,35.664-12.512c4.675,0,11.224,0.351,16.954,1.399c4.444,0.819,8.183,1.522,11.924,1.756
			c1.288,0.117,1.522,0.585,1.522,1.288c0,0.931-0.349,2.336-0.585,6.546c-0.231,3.858-0.231,10.293-0.351,12.044
			c-0.117,1.756-0.349,2.453-1.051,2.453c-0.817,0-0.937-0.819-0.937-2.453c0-4.562-1.871-9.356-4.909-11.927
			c-4.093-3.508-13.095-6.664-23.386-6.664c-15.551,0-22.8,4.561-26.893,8.537c-8.534,8.18-10.522,18.585-10.522,30.518
			c0,22.331,17.188,42.79,42.21,42.79c8.771,0,15.666-1.049,20.344-5.844c2.456-2.576,3.976-7.717,4.327-9.819
			c0.231-1.288,0.469-1.757,1.168-1.757c0.585,0,0.82,0.82,0.82,1.757c0,0.813-1.402,10.99-2.571,14.966
			c-0.706,2.219-0.937,2.453-3.044,3.39c-4.675,1.868-13.561,2.688-21.043,2.688C183.586,403.481,171.776,399.154,162.537,390.853z"
			/>
		<path fill="#FFFFFF" d="M318.87,367.935c0,11.224,0,20.464,0.579,25.376c0.352,3.384,1.049,5.96,4.562,6.423
			c1.64,0.24,4.21,0.469,5.264,0.469c0.702,0,0.937,0.357,0.937,0.708c0,0.58-0.591,0.932-1.873,0.932
			c-6.435,0-13.795-0.352-14.386-0.352c-0.58,0-7.949,0.352-11.456,0.352c-1.285,0-1.871-0.234-1.871-0.932
			c0-0.351,0.237-0.708,0.934-0.708c1.054,0,2.457-0.229,3.51-0.469c2.339-0.463,2.922-3.039,3.39-6.423
			c0.586-4.913,0.586-14.152,0.586-25.376v-12.278c0-0.469-0.349-0.697-0.702-0.697h-49.576c-0.349,0-0.7,0.111-0.7,0.697v12.278
			c0,11.224,0,20.464,0.583,25.376c0.352,3.384,1.054,5.96,4.564,6.423c1.634,0.24,4.207,0.469,5.258,0.469
			c0.7,0,0.937,0.357,0.937,0.708c0,0.58-0.585,0.932-1.874,0.932c-6.429,0-13.794-0.352-14.38-0.352
			c-0.583,0-7.951,0.352-11.458,0.352c-1.285,0-1.871-0.234-1.871-0.932c0-0.351,0.237-0.708,0.937-0.708
			c1.051,0,2.454-0.229,3.508-0.469c2.339-0.463,2.921-3.039,3.39-6.423c0.586-4.913,0.586-14.152,0.586-25.376v-20.581
			c0-18.233,0-21.512-0.237-25.248c-0.231-3.981-1.168-5.849-5.026-6.669c-0.937-0.234-2.919-0.351-3.976-0.351
			c-0.468,0-0.934-0.234-0.934-0.703c0-0.703,0.586-0.931,1.871-0.931c5.261,0,12.629,0.351,13.212,0.351
			c0.586,0,7.952-0.351,11.459-0.351c1.288,0,1.871,0.229,1.871,0.931c0,0.469-0.468,0.703-0.934,0.703
			c-0.82,0-1.522,0.117-2.925,0.351c-3.156,0.586-4.093,2.571-4.327,6.669c-0.231,3.736-0.231,7.015-0.231,25.248v2.459
			c0,0.585,0.351,0.702,0.7,0.702h49.576c0.354,0,0.702-0.117,0.702-0.702v-2.459c0-18.233,0-21.512-0.234-25.248
			c-0.234-3.981-1.171-5.849-5.026-6.669c-0.937-0.234-2.922-0.351-3.979-0.351c-0.468,0-0.931-0.234-0.931-0.703
			c0-0.703,0.583-0.931,1.868-0.931c5.261,0,12.63,0.351,13.21,0.351c0.591,0,7.951-0.351,11.464-0.351
			c1.282,0,1.868,0.229,1.868,0.931c0,0.469-0.469,0.703-0.938,0.703c-0.813,0-1.521,0.117-2.921,0.351
			c-3.156,0.586-4.094,2.571-4.322,6.669c-0.233,3.736-0.233,7.015-0.233,25.248V367.935z"/>
	</g>
	<path fill="#FFFFFF" d="M382.692,311.813c26.302,0,45.945,16.6,45.945,43.844c0,26.19-18.468,47.824-46.648,47.824
		c-32.039,0-45.371-24.902-45.371-45.951C336.618,338.589,350.418,311.813,382.692,311.813z M385.146,399.038
		c10.521,0,32.268-6.078,32.268-40.103c0-28.063-17.067-43.146-35.546-43.146c-19.521,0-34.137,12.863-34.137,38.463
		C347.73,381.501,364.096,399.038,385.146,399.038z"/>
	<g>
		<path fill="#FFFFFF" d="M455.642,368.169c0,17.185,0.469,24.673,2.571,26.776c1.873,1.873,4.912,2.688,14.034,2.688
			c6.195,0,11.342-0.117,14.146-3.508c1.517-1.868,2.688-4.795,3.039-7.014c0.116-0.937,0.351-1.517,1.054-1.517
			c0.58,0,0.702,0.468,0.702,1.75c0,1.288-0.825,8.303-1.756,11.693c-0.82,2.692-1.166,3.155-7.366,3.155
			c-16.84,0-24.557-0.702-31.337-0.702c-0.468,0-2.453,0.117-4.795,0.117c-2.342,0.122-4.907,0.234-6.658,0.234
			c-1.293,0-1.873-0.234-1.873-0.932c0-0.351,0.234-0.708,0.937-0.708c1.049,0,2.453-0.229,3.502-0.469
			c2.342-0.463,2.927-3.039,3.396-6.423c0.585-4.913,0.585-14.152,0.585-25.376v-20.581c0-18.233,0-21.512-0.233-25.248
			c-0.234-3.981-1.171-5.849-5.03-6.669c-0.937-0.234-2.921-0.351-3.98-0.351c-0.457,0-0.926-0.234-0.926-0.703
			c0-0.703,0.58-0.931,1.862-0.931c5.264,0,12.635,0.351,13.215,0.351c0.586,0,9.122-0.351,12.636-0.351
			c1.282,0,1.861,0.229,1.861,0.931c0,0.469-0.468,0.703-0.937,0.703c-0.813,0-2.453,0.117-3.858,0.351
			c-3.39,0.586-4.321,2.571-4.561,6.669c-0.229,3.736-0.229,7.015-0.229,25.248V368.169z"/>
		<path fill="#FFFFFF" d="M517.262,368.169c0,17.185,0.469,24.673,2.57,26.776c1.868,1.873,4.912,2.688,14.029,2.688
			c6.195,0,11.342-0.117,14.146-3.508c1.527-1.868,2.688-4.795,3.044-7.014c0.111-0.937,0.352-1.517,1.049-1.517
			c0.585,0,0.702,0.468,0.702,1.75c0,1.288-0.814,8.303-1.751,11.693c-0.813,2.692-1.171,3.155-7.371,3.155
			c-16.834,0-24.546-0.702-31.331-0.702c-0.469,0-2.454,0.117-4.79,0.117c-2.342,0.122-4.918,0.234-6.669,0.234
			c-1.282,0-1.873-0.234-1.873-0.932c0-0.351,0.234-0.708,0.937-0.708c1.054,0,2.453-0.229,3.513-0.469
			c2.331-0.463,2.922-3.039,3.391-6.423c0.579-4.913,0.579-14.152,0.579-25.376v-20.581c0-18.233,0-21.512-0.233-25.248
			c-0.234-3.981-1.171-5.849-5.03-6.669c-0.937-0.234-2.921-0.351-3.97-0.351c-0.469,0-0.937-0.234-0.937-0.703
			c0-0.703,0.58-0.931,1.873-0.931c5.264,0,12.624,0.351,13.21,0.351c0.585,0,9.116-0.351,12.629-0.351
			c1.283,0,1.868,0.229,1.868,0.931c0,0.469-0.463,0.703-0.931,0.703c-0.82,0-2.459,0.117-3.864,0.351
			c-3.385,0.586-4.321,2.571-4.556,6.669c-0.234,3.736-0.234,7.015-0.234,25.248V368.169z"/>
		<path fill="#FFFFFF" d="M561.579,400.326c-1.639-0.82-1.762-1.288-1.762-4.444c0-5.844,0.469-10.527,0.591-12.396
			c0.111-1.288,0.346-1.868,0.932-1.868c0.708,0,0.819,0.352,0.819,1.288c0,1.049,0,2.688,0.346,4.322
			c1.762,8.654,9.479,11.926,17.308,11.926c11.23,0,16.723-8.068,16.723-15.551c0-8.068-3.396-12.747-13.443-21.049l-5.264-4.322
			c-12.396-10.176-15.2-17.425-15.2-25.376c0-12.507,9.356-21.043,24.199-21.043c4.562,0,7.951,0.468,10.879,1.171
			c2.219,0.468,3.155,0.58,4.087,0.58c0.937,0,1.171,0.239,1.171,0.819c0,0.585-0.468,4.444-0.468,12.396
			c0,1.873-0.234,2.688-0.814,2.688c-0.703,0-0.82-0.585-0.937-1.517c-0.123-1.405-0.82-4.562-1.517-5.844
			c-0.703-1.288-3.864-6.2-14.621-6.2c-8.068,0-14.38,5.029-14.38,13.561c0,6.669,3.273,10.645,14.264,19.644l3.272,2.571
			c13.795,10.873,17.074,18.127,17.074,27.478c0,4.796-1.874,13.684-9.937,19.41c-5.029,3.507-11.348,4.912-17.659,4.912
			C571.75,403.481,566.369,402.662,561.579,400.326z"/>
	</g>
	<g>
		<path fill="#FFFFFF" d="M10.158,478.841c-0.845-0.424-0.906-0.664-0.906-2.298c0-3.021,0.242-5.436,0.301-6.406
			c0.062-0.664,0.181-0.965,0.485-0.965c0.362,0,0.424,0.179,0.424,0.664c0,0.546,0,1.388,0.181,2.235
			c0.903,4.472,4.893,6.161,8.938,6.161c5.802,0,8.64-4.165,8.64-8.034c0-4.171-1.751-6.585-6.948-10.873l-2.718-2.236
			c-6.404-5.253-7.854-8.999-7.854-13.109c0-6.462,4.834-10.873,12.507-10.873c2.354,0,4.107,0.24,5.618,0.603
			c1.146,0.245,1.631,0.301,2.113,0.301c0.485,0,0.605,0.123,0.605,0.424c0,0.307-0.243,2.303-0.243,6.407
			c0,0.964-0.12,1.388-0.421,1.388c-0.365,0-0.424-0.301-0.485-0.785c-0.061-0.726-0.424-2.354-0.786-3.022
			c-0.362-0.664-1.993-3.201-7.55-3.201c-4.168,0-7.43,2.599-7.43,7.009c0,3.441,1.689,5.498,7.371,10.148l1.687,1.333
			c7.132,5.615,8.821,9.362,8.821,14.19c0,2.481-0.964,7.07-5.133,10.031c-2.598,1.812-5.86,2.537-9.122,2.537
			C15.413,480.469,12.636,480.045,10.158,478.841z"/>
		<path fill="#FFFFFF" d="M60.539,462.107c0,5.793,0,10.566,0.304,13.104c0.182,1.756,0.544,3.083,2.356,3.323
			c0.845,0.122,2.175,0.239,2.718,0.239c0.363,0,0.482,0.185,0.482,0.363c0,0.307-0.301,0.49-0.965,0.49
			c-3.323,0-7.128-0.184-7.433-0.184c-0.301,0-4.106,0.184-5.919,0.184c-0.663,0-0.967-0.123-0.967-0.49
			c0-0.179,0.12-0.363,0.485-0.363c0.543,0,1.269-0.117,1.812-0.239c1.207-0.24,1.511-1.567,1.751-3.323
			c0.301-2.537,0.301-7.311,0.301-13.104v-25.561l-8.941,0.123c-3.744,0.066-5.194,0.484-6.161,1.935
			c-0.667,1.026-0.845,1.45-1.026,1.874c-0.182,0.484-0.363,0.602-0.605,0.602c-0.181,0-0.304-0.178-0.304-0.546
			c0-0.597,1.21-5.794,1.33-6.278c0.123-0.363,0.365-1.149,0.605-1.149c0.423,0,1.029,0.603,2.657,0.726
			c1.754,0.178,4.048,0.301,4.773,0.301h22.655c1.935,0,3.323-0.179,4.288-0.301c0.909-0.185,1.453-0.302,1.692-0.302
			c0.304,0,0.304,0.362,0.304,0.726c0,1.812-0.184,5.982-0.184,6.646c0,0.541-0.179,0.786-0.421,0.786
			c-0.304,0-0.424-0.185-0.482-1.032l-0.062-0.663c-0.243-1.812-1.634-3.2-7.43-3.323l-7.614-0.123V462.107z"/>
	</g>
	<g>
		<path fill="#FFFFFF" d="M94.6,435.46c0.725-1.991,0.968-2.354,1.33-2.354c0.365,0,0.605,0.307,1.33,2.175
			c0.906,2.297,10.391,27.25,14.073,36.428c2.178,5.375,3.929,6.346,5.197,6.708c0.906,0.301,1.812,0.356,2.417,0.356
			c0.362,0,0.602,0.067,0.602,0.363c0,0.367-0.541,0.49-1.207,0.49c-0.906,0-5.314,0-9.485-0.123
			c-1.146-0.061-1.81-0.061-1.81-0.424c0-0.239,0.179-0.362,0.421-0.424c0.362-0.122,0.725-0.663,0.362-1.633l-5.618-14.86
			c-0.123-0.239-0.243-0.362-0.544-0.362H88.681c-0.301,0-0.482,0.184-0.602,0.484l-3.627,10.695
			c-0.543,1.506-0.845,2.961-0.845,4.043c0,1.209,1.269,1.75,2.294,1.75h0.605c0.424,0,0.602,0.123,0.602,0.363
			c0,0.367-0.359,0.49-0.903,0.49c-1.45,0-4.048-0.184-4.711-0.184c-0.667,0-3.987,0.184-6.828,0.184
			c-0.786,0-1.149-0.123-1.149-0.49c0-0.24,0.243-0.363,0.543-0.363c0.424,0,1.269-0.056,1.751-0.117
			c2.78-0.362,3.987-2.659,5.077-5.676L94.6,435.46z M100.884,459.626c0.301,0,0.301-0.179,0.243-0.418l-5.741-16.315
			c-0.301-0.909-0.604-0.909-0.906,0l-5.317,16.315c-0.12,0.295,0,0.418,0.182,0.418H100.884z"/>
		<path fill="#FFFFFF" d="M136.043,462.107c0,5.793,0,10.566,0.304,13.104c0.182,1.756,0.541,3.083,2.354,3.323
			c0.847,0.122,2.177,0.239,2.718,0.239c0.365,0,0.485,0.185,0.485,0.363c0,0.307-0.304,0.49-0.967,0.49
			c-3.321,0-7.126-0.184-7.43-0.184c-0.301,0-4.109,0.184-5.919,0.184c-0.666,0-0.967-0.123-0.967-0.49
			c0-0.179,0.12-0.363,0.482-0.363c0.543,0,1.269-0.117,1.812-0.239c1.207-0.24,1.511-1.567,1.751-3.323
			c0.304-2.537,0.304-7.311,0.304-13.104v-25.561l-8.941,0.123c-3.744,0.066-5.197,0.484-6.162,1.935
			c-0.666,1.026-0.845,1.45-1.028,1.874c-0.182,0.484-0.363,0.602-0.603,0.602c-0.181,0-0.304-0.178-0.304-0.546
			c0-0.597,1.21-5.794,1.33-6.278c0.12-0.363,0.362-1.149,0.604-1.149c0.424,0,1.026,0.603,2.657,0.726
			c1.753,0.178,4.048,0.301,4.773,0.301h22.655c1.933,0,3.321-0.179,4.291-0.301c0.903-0.185,1.45-0.302,1.689-0.302
			c0.301,0,0.301,0.362,0.301,0.726c0,1.812-0.181,5.982-0.181,6.646c0,0.541-0.179,0.786-0.424,0.786
			c-0.301,0-0.421-0.185-0.482-1.032l-0.059-0.663c-0.245-1.812-1.631-3.2-7.433-3.323l-7.611-0.123V462.107z"/>
	</g>
	<path fill="#FFFFFF" d="M164.14,451.474c0-9.423,0-11.118-0.123-13.053c-0.123-2.052-0.605-3.017-2.599-3.44
		c-0.482-0.117-1.511-0.184-2.052-0.184c-0.245,0-0.485-0.123-0.485-0.363c0-0.356,0.304-0.479,0.968-0.479
		c2.718,0,6.523,0.179,6.828,0.179c0.418,0,12.443,0,13.831-0.056c1.149-0.067,2.116-0.185,2.598-0.307
		c0.304-0.062,0.544-0.302,0.845-0.302c0.181,0,0.245,0.24,0.245,0.541c0,0.424-0.304,1.154-0.488,2.844
		c-0.059,0.603-0.181,3.262-0.298,3.987c-0.064,0.301-0.181,0.663-0.424,0.663c-0.362,0-0.485-0.307-0.485-0.786
		c0-0.424-0.059-1.45-0.36-2.175c-0.426-0.965-1.029-1.689-4.291-2.052c-1.029-0.122-7.611-0.184-8.275-0.184
		c-0.245,0-0.362,0.184-0.362,0.607v16.672c0,0.424,0.059,0.603,0.362,0.603c0.784,0,8.213,0,9.602-0.123
		c1.449-0.117,2.297-0.239,2.841-0.842c0.424-0.484,0.664-0.786,0.906-0.786c0.181,0,0.304,0.123,0.304,0.485
		c0,0.356-0.304,1.389-0.488,3.379c-0.117,1.21-0.239,3.445-0.239,3.869c0,0.485,0,1.149-0.424,1.149
		c-0.301,0-0.421-0.245-0.421-0.541c0-0.608,0-1.21-0.243-1.996c-0.24-0.848-0.787-1.874-3.142-2.113
		c-1.631-0.185-7.608-0.307-8.637-0.307c-0.304,0-0.421,0.184-0.421,0.424v5.319c0,2.052-0.064,9.061,0,10.326
		c0.181,4.171,1.084,4.957,7.006,4.957c1.569,0,4.227,0,5.799-0.669c1.569-0.663,2.294-1.868,2.718-4.349
		c0.123-0.664,0.24-0.904,0.541-0.904c0.365,0,0.365,0.48,0.365,0.904c0,0.484-0.482,4.594-0.783,5.859
		c-0.424,1.572-0.909,1.572-3.265,1.572c-9.122,0-13.17-0.361-14.918-0.361c-0.123,0-1.151,0.061-2.42,0.061
		c-1.208,0.057-2.599,0.123-3.504,0.123c-0.664,0-0.968-0.123-0.968-0.49c0-0.179,0.123-0.363,0.485-0.363
		c0.546,0,1.269-0.117,1.815-0.239c1.205-0.24,1.508-1.567,1.751-3.323c0.304-2.537,0.304-7.311,0.304-13.104V451.474z"/>
	<g>
		<path fill="#FFFFFF" d="M217.496,451.474c0-9.423,0-11.118-0.117-13.053c-0.123-2.052-0.605-3.017-2.601-3.44
			c-0.482-0.117-1.509-0.184-2.055-0.184c-0.24,0-0.482-0.123-0.482-0.363c0-0.356,0.301-0.479,0.967-0.479
			c2.715,0,6.404,0.179,6.948,0.179c0.541,0,4.168-0.179,5.977-0.179c0.669,0,0.97,0.123,0.97,0.479c0,0.24-0.242,0.363-0.482,0.363
			c-0.423,0-0.786,0.066-1.514,0.184c-1.628,0.239-2.113,1.327-2.233,3.44c-0.123,1.935-0.123,3.63-0.123,13.053v8.453
			c0,8.704,1.932,12.446,4.533,14.927c2.958,2.777,5.676,3.323,9.122,3.323c3.683,0,7.31-1.756,9.484-4.354
			c2.777-3.44,3.505-8.576,3.505-14.799v-7.55c0-9.423,0-11.118-0.123-13.053c-0.12-2.052-0.604-3.017-2.595-3.44
			c-0.482-0.117-1.514-0.184-2.055-0.184c-0.242,0-0.482-0.123-0.482-0.363c0-0.356,0.298-0.479,0.964-0.479
			c2.718,0,6.042,0.179,6.404,0.179c0.424,0,3.259-0.179,5.074-0.179c0.663,0,0.967,0.123,0.967,0.479
			c0,0.24-0.243,0.363-0.482,0.363c-0.427,0-0.786,0-1.514,0.184c-1.631,0.301-2.113,1.327-2.236,3.44
			c-0.12,1.935-0.12,3.63-0.12,13.053v6.463c0,6.523-0.725,13.772-5.56,18.061c-4.349,3.87-8.877,4.472-12.439,4.472
			c-2.055,0-8.158-0.24-12.448-4.288c-2.958-2.844-5.256-7.07-5.256-15.892V451.474z"/>
		<path fill="#FFFFFF" d="M271.987,471.408c0.12,4.951,0.725,6.523,2.355,7.009c1.146,0.301,2.479,0.356,3.022,0.356
			c0.301,0,0.482,0.123,0.482,0.363c0,0.367-0.362,0.49-1.09,0.49c-3.44,0-5.86-0.184-6.401-0.184c-0.541,0-3.081,0.184-5.799,0.184
			c-0.605,0-0.964-0.066-0.964-0.49c0-0.24,0.181-0.363,0.482-0.363c0.482,0,1.572-0.056,2.476-0.356
			c1.511-0.424,1.815-2.175,1.815-7.673l0.059-34.621c0-2.353,0.181-3.017,0.664-3.017s1.511,1.327,2.113,1.935
			c0.906,1.026,9.911,10.751,19.212,20.721c5.978,6.401,12.565,13.772,14.497,15.769l-0.663-30.689
			c-0.059-3.926-0.482-5.259-2.356-5.743c-1.087-0.234-2.476-0.301-2.958-0.301c-0.424,0-0.488-0.179-0.488-0.419
			c0-0.368,0.488-0.424,1.21-0.424c2.718,0,5.618,0.179,6.284,0.179c0.667,0,2.657-0.179,5.135-0.179
			c0.664,0,1.082,0.056,1.082,0.424c0,0.24-0.234,0.419-0.658,0.419c-0.307,0-0.725,0-1.449,0.184
			c-1.996,0.424-2.239,1.756-2.239,5.375l-0.117,35.401c0,3.987-0.122,4.288-0.546,4.288c-0.482,0-1.208-0.663-4.408-3.864
			c-0.666-0.607-9.364-9.49-15.771-16.37c-7.006-7.551-13.831-15.167-15.766-17.342L271.987,471.408z"/>
		<path fill="#FFFFFF" d="M331.851,462.107c0,5.793,0,10.566,0.307,13.104c0.179,1.756,0.541,3.083,2.358,3.323
			c0.842,0.122,2.169,0.239,2.716,0.239c0.362,0,0.485,0.185,0.485,0.363c0,0.307-0.302,0.49-0.971,0.49
			c-3.323,0-7.126-0.184-7.427-0.184c-0.302,0-4.115,0.184-5.922,0.184c-0.663,0-0.97-0.123-0.97-0.49
			c0-0.179,0.122-0.363,0.484-0.363c0.541,0,1.266-0.117,1.812-0.239c1.21-0.24,1.511-1.567,1.756-3.323
			c0.296-2.537,0.296-7.311,0.296-13.104v-10.634c0-9.423,0-11.118-0.111-13.053c-0.123-2.052-0.73-3.078-2.058-3.38
			c-0.664-0.178-1.45-0.244-1.873-0.244c-0.24,0-0.485-0.123-0.485-0.363c0-0.356,0.301-0.479,0.97-0.479
			c1.985,0,5.799,0.179,6.101,0.179c0.301,0,4.104-0.179,5.916-0.179c0.669,0,0.97,0.123,0.97,0.479c0,0.24-0.239,0.363-0.484,0.363
			c-0.424,0-0.787,0.066-1.506,0.184c-1.634,0.301-2.119,1.327-2.241,3.44c-0.123,1.935-0.123,3.63-0.123,13.053V462.107z"/>
		<path fill="#FFFFFF" d="M365.686,472.256c3.502-8.097,11.598-29.18,12.925-33.528c0.301-0.909,0.547-1.757,0.547-2.298
			c0-0.479-0.179-1.087-0.786-1.389c-0.726-0.244-1.635-0.244-2.292-0.244c-0.368,0-0.669-0.057-0.669-0.363
			c0-0.356,0.362-0.479,1.326-0.479c2.421,0,5.197,0.179,5.922,0.179c0.363,0,2.955-0.179,4.712-0.179
			c0.663,0,1.031,0.123,1.031,0.424c0,0.296-0.245,0.419-0.725,0.419c-0.424,0-1.751,0-2.899,0.729
			c-0.786,0.541-1.695,1.567-3.323,5.671c-0.669,1.695-3.691,8.949-6.77,16.377c-3.68,8.821-6.401,15.345-7.795,18.306
			c-1.689,3.624-1.929,4.589-2.531,4.589c-0.725,0-1.026-0.842-2.181-3.747l-14.793-37.03c-1.338-3.384-2.241-4.048-4.354-4.65
			c-0.909-0.244-1.935-0.244-2.292-0.244c-0.367,0-0.49-0.179-0.49-0.419c0-0.368,0.607-0.424,1.572-0.424
			c2.899,0,6.346,0.179,7.07,0.179c0.603,0,3.323-0.179,5.621-0.179c1.081,0,1.628,0.123,1.628,0.424
			c0,0.296-0.179,0.419-0.603,0.419c-0.669,0-1.751,0.066-2.297,0.301c-0.67,0.307-0.781,0.786-0.781,1.21
			c0,0.786,0.72,2.659,1.629,5.013L365.686,472.256z"/>
		<path fill="#FFFFFF" d="M396.615,451.474c0-9.423,0-11.118-0.117-13.053c-0.123-2.052-0.613-3.017-2.604-3.44
			c-0.485-0.117-1.512-0.184-2.053-0.184c-0.239,0-0.484-0.123-0.484-0.363c0-0.356,0.301-0.479,0.964-0.479
			c2.727,0,6.53,0.179,6.831,0.179c0.424,0,12.445,0,13.828-0.056c1.154-0.067,2.119-0.185,2.604-0.307
			c0.302-0.062,0.541-0.302,0.843-0.302c0.184,0,0.245,0.24,0.245,0.541c0,0.424-0.301,1.154-0.491,2.844
			c-0.056,0.603-0.173,3.262-0.295,3.987c-0.062,0.301-0.185,0.663-0.424,0.663c-0.362,0-0.485-0.307-0.485-0.786
			c0-0.424-0.056-1.45-0.362-2.175c-0.418-0.965-1.026-1.689-4.288-2.052c-1.025-0.122-7.611-0.184-8.274-0.184
			c-0.245,0-0.368,0.184-0.368,0.607v16.672c0,0.424,0.066,0.603,0.368,0.603c0.786,0,8.219,0,9.602-0.123
			c1.45-0.117,2.298-0.239,2.844-0.842c0.424-0.484,0.663-0.786,0.903-0.786c0.184,0,0.301,0.123,0.301,0.485
			c0,0.356-0.301,1.389-0.479,3.379c-0.122,1.21-0.245,3.445-0.245,3.869c0,0.485,0,1.149-0.424,1.149
			c-0.295,0-0.418-0.245-0.418-0.541c0-0.608,0-1.21-0.24-1.996c-0.245-0.848-0.791-1.874-3.145-2.113
			c-1.628-0.185-7.611-0.307-8.643-0.307c-0.301,0-0.424,0.184-0.424,0.424v5.319c0,2.052-0.056,9.061,0,10.326
			c0.189,4.171,1.093,4.957,7.015,4.957c1.572,0,4.227,0,5.799-0.669c1.572-0.663,2.292-1.868,2.722-4.349
			c0.116-0.664,0.239-0.904,0.535-0.904c0.367,0,0.367,0.48,0.367,0.904c0,0.484-0.479,4.594-0.786,5.859
			c-0.424,1.572-0.908,1.572-3.262,1.572c-9.122,0-13.17-0.361-14.921-0.361c-0.123,0-1.148,0.061-2.42,0.061
			c-1.205,0.057-2.599,0.123-3.502,0.123c-0.663,0-0.971-0.123-0.971-0.49c0-0.179,0.123-0.363,0.491-0.363
			c0.541,0,1.26-0.117,1.807-0.239c1.21-0.24,1.511-1.567,1.757-3.323c0.301-2.537,0.301-7.311,0.301-13.104V451.474z"/>
		<path fill="#FFFFFF" d="M432.675,451.474c0-9.423,0-11.118-0.117-13.053c-0.123-2.052-0.607-3.017-2.593-3.44
			c-0.49-0.117-1.517-0.184-2.058-0.184c-0.239,0-0.485-0.123-0.485-0.363c0-0.356,0.302-0.479,0.971-0.479
			c2.715,0,6.523,0.179,6.825,0.179c0.663,0,5.252-0.179,7.126-0.179c3.808,0,7.851,0.362,11.057,2.66
			c1.512,1.087,4.165,4.042,4.165,8.213c0,4.472-1.873,8.938-7.304,13.957c4.951,6.34,9.055,11.715,12.562,15.462
			c3.262,3.445,5.86,4.109,7.365,4.35c1.154,0.178,1.996,0.178,2.358,0.178c0.308,0,0.547,0.185,0.547,0.363
			c0,0.367-0.362,0.49-1.45,0.49h-4.287c-3.385,0-4.896-0.307-6.469-1.148c-2.598-1.395-4.711-4.355-8.151-8.883
			c-2.543-3.323-5.376-7.371-6.586-8.938c-0.239-0.245-0.423-0.368-0.786-0.368l-7.427-0.117c-0.307,0-0.424,0.179-0.424,0.485v1.45
			c0,5.793,0,10.566,0.301,13.104c0.179,1.756,0.547,3.083,2.354,3.323c0.848,0.122,2.175,0.239,2.721,0.239
			c0.357,0,0.479,0.185,0.479,0.363c0,0.307-0.301,0.49-0.965,0.49c-3.323,0-7.131-0.184-7.433-0.184
			c-0.056,0-3.864,0.184-5.676,0.184c-0.664,0-0.965-0.123-0.965-0.49c0-0.179,0.117-0.363,0.485-0.363
			c0.541,0,1.26-0.117,1.807-0.239c1.215-0.24,1.517-1.567,1.751-3.323c0.301-2.537,0.301-7.311,0.301-13.104V451.474z
			 M437.515,456.727c0,0.307,0.117,0.541,0.424,0.73c0.903,0.541,3.68,0.959,6.34,0.959c1.45,0,3.14-0.179,4.533-1.148
			c2.113-1.45,3.68-4.706,3.68-9.301c0-7.55-3.986-12.083-10.449-12.083c-1.817,0-3.445,0.184-4.048,0.362
			c-0.301,0.123-0.479,0.368-0.479,0.725V456.727z"/>
		<path fill="#FFFFFF" d="M473.574,478.841c-0.842-0.424-0.903-0.664-0.903-2.298c0-3.021,0.24-5.436,0.301-6.406
			c0.062-0.664,0.185-0.965,0.485-0.965c0.357,0,0.424,0.179,0.424,0.664c0,0.546,0,1.388,0.179,2.235
			c0.909,4.472,4.896,6.161,8.943,6.161c5.799,0,8.638-4.165,8.638-8.034c0-4.171-1.757-6.585-6.953-10.873l-2.716-2.236
			c-6.401-5.253-7.851-8.999-7.851-13.109c0-6.462,4.834-10.873,12.507-10.873c2.353,0,4.104,0.24,5.62,0.603
			c1.143,0.245,1.628,0.301,2.107,0.301c0.485,0,0.603,0.123,0.603,0.424c0,0.307-0.239,2.303-0.239,6.407
			c0,0.964-0.117,1.388-0.419,1.388c-0.362,0-0.424-0.301-0.485-0.785c-0.061-0.726-0.424-2.354-0.786-3.022
			c-0.356-0.664-1.996-3.201-7.55-3.201c-4.17,0-7.427,2.599-7.427,7.009c0,3.441,1.684,5.498,7.366,10.148l1.689,1.333
			c7.126,5.615,8.82,9.362,8.82,14.19c0,2.481-0.97,7.07-5.129,10.031c-2.599,1.812-5.866,2.537-9.123,2.537
			C478.832,480.469,476.056,480.045,473.574,478.841z"/>
		<path fill="#FFFFFF" d="M516.169,462.107c0,5.793,0,10.566,0.301,13.104c0.179,1.756,0.541,3.083,2.354,3.323
			c0.848,0.122,2.175,0.239,2.721,0.239c0.356,0,0.479,0.185,0.479,0.363c0,0.307-0.301,0.49-0.965,0.49
			c-3.317,0-7.131-0.184-7.433-0.184c-0.301,0-4.104,0.184-5.921,0.184c-0.658,0-0.96-0.123-0.96-0.49
			c0-0.179,0.123-0.363,0.479-0.363c0.547,0,1.271-0.117,1.812-0.239c1.21-0.24,1.512-1.567,1.751-3.323
			c0.307-2.537,0.307-7.311,0.307-13.104v-10.634c0-9.423,0-11.118-0.123-13.053c-0.122-2.052-0.725-3.078-2.052-3.38
			c-0.669-0.178-1.455-0.244-1.873-0.244c-0.246,0-0.485-0.123-0.485-0.363c0-0.356,0.307-0.479,0.965-0.479
			c1.996,0,5.799,0.179,6.1,0.179c0.302,0,4.115-0.179,5.922-0.179c0.663,0,0.97,0.123,0.97,0.479c0,0.24-0.245,0.363-0.49,0.363
			c-0.412,0-0.78,0.066-1.506,0.184c-1.628,0.301-2.118,1.327-2.23,3.44c-0.122,1.935-0.122,3.63-0.122,13.053V462.107z"/>
		<path fill="#FFFFFF" d="M549.758,462.107c0,5.793,0,10.566,0.302,13.104c0.179,1.756,0.541,3.083,2.353,3.323
			c0.848,0.122,2.175,0.239,2.722,0.239c0.356,0,0.479,0.185,0.479,0.363c0,0.307-0.301,0.49-0.965,0.49
			c-3.323,0-7.132-0.184-7.433-0.184c-0.302,0-4.104,0.184-5.922,0.184c-0.658,0-0.959-0.123-0.959-0.49
			c0-0.179,0.111-0.363,0.479-0.363c0.541,0,1.271-0.117,1.807-0.239c1.216-0.24,1.517-1.567,1.757-3.323
			c0.301-2.537,0.301-7.311,0.301-13.104v-25.561l-8.938,0.123c-3.747,0.066-5.196,0.484-6.167,1.935
			c-0.658,1.026-0.842,1.45-1.025,1.874c-0.179,0.484-0.357,0.602-0.603,0.602c-0.179,0-0.301-0.178-0.301-0.546
			c0-0.597,1.21-5.794,1.326-6.278c0.123-0.363,0.368-1.149,0.603-1.149c0.424,0,1.032,0.603,2.665,0.726
			c1.751,0.178,4.043,0.301,4.773,0.301h22.649c1.93,0,3.323-0.179,4.294-0.301c0.903-0.185,1.443-0.302,1.689-0.302
			c0.295,0,0.295,0.362,0.295,0.726c0,1.812-0.178,5.982-0.178,6.646c0,0.541-0.179,0.786-0.424,0.786
			c-0.302,0-0.424-0.185-0.479-1.032l-0.067-0.663c-0.234-1.812-1.628-3.2-7.427-3.323l-7.606-0.123V462.107z"/>
	</g>
	<path fill="#FFFFFF" d="M585.222,463.98c0-3.268-0.603-4.594-1.389-6.346c-0.424-0.964-8.521-14.257-10.634-17.396
		c-1.505-2.241-3.021-3.747-4.104-4.472c-0.914-0.603-2.058-0.97-2.599-0.97c-0.301,0-0.607-0.123-0.607-0.419
		c0-0.245,0.245-0.424,0.786-0.424c1.148,0,5.676,0.179,5.982,0.179c0.419,0,2.716-0.179,5.074-0.179
		c0.664,0,0.787,0.179,0.787,0.424c0,0.24-0.368,0.296-0.904,0.541c-0.49,0.245-0.791,0.607-0.791,1.087
		c0,0.73,0.301,1.45,0.791,2.359c0.96,1.75,10.026,17.335,11.113,19.092c1.144-2.543,8.815-15.769,10.02-17.766
		c0.792-1.271,1.037-2.291,1.037-3.077c0-0.848-0.245-1.517-0.97-1.695c-0.546-0.179-0.903-0.301-0.903-0.603
		c0-0.239,0.357-0.362,0.959-0.362c1.572,0,3.508,0.179,3.992,0.179c0.363,0,4.712-0.179,5.855-0.179
		c0.424,0,0.791,0.123,0.791,0.362c0,0.302-0.301,0.48-0.791,0.48c-0.658,0-1.807,0.244-2.777,0.847
		c-1.204,0.726-1.873,1.45-3.2,3.084c-1.996,2.414-10.449,16.61-11.542,19.209c-0.904,2.175-0.904,4.048-0.904,6.044v5.191
		c0,0.965,0,3.502,0.179,6.039c0.123,1.756,0.669,3.083,2.481,3.323c0.842,0.122,2.175,0.239,2.716,0.239
		c0.368,0,0.485,0.185,0.485,0.363c0,0.307-0.302,0.49-0.965,0.49c-3.323,0-7.132-0.184-7.428-0.184
		c-0.301,0-4.115,0.184-5.922,0.184c-0.669,0-0.97-0.123-0.97-0.49c0-0.179,0.123-0.363,0.491-0.363c0.535,0,1.26-0.117,1.807-0.239
		c1.204-0.24,1.75-1.567,1.873-3.323c0.179-2.537,0.179-5.074,0.179-6.039V463.98z"/>
	<path fill-rule="evenodd" clip-rule="evenodd" fill="#FFFFFF" d="M607.269,479.443"/>
</g>
</svg>
