<?xml version="1.0" encoding="utf-8"?>
<!-- Generator: Adobe Illustrator 16.0.4, SVG Export Plug-In . SVG Version: 6.00 Build 0)  -->
<!DOCTYPE svg PUBLIC "-//W3C//DTD SVG 1.1//EN" "http://www.w3.org/Graphics/SVG/1.1/DTD/svg11.dtd">
<svg version="1.1" id="Layer_1" xmlns="http://www.w3.org/2000/svg" xmlns:xlink="http://www.w3.org/1999/xlink" x="0px" y="0px"
	 width="792px" height="612px" viewBox="0 0 792 612" enable-background="new 0 0 792 612" xml:space="preserve">
<g>
	<g>
		<path d="M521.184,258.718c51.424-0.93,110.296-6.022,143.487-32.926c-34.154,7.172-102.979,6.885-143.487,6.885l-2.726,0.003
			c0.019-20.435,0.032-38.562,0.013-44.71c8.402-0.152,21.74-0.433,21.74-0.433v-74.776H415.447v75.15h21.799l0.051,44.769h-7.085
			l-94.595-119.896H230.049v75.102l20.607-0.003v44.794h-40.183c-4.75-15.653-16.812-26.894-22.893-26.894v26.894h-64.358
			c-1.844-1.989-4.127-3.165-6.595-3.165c-6.136,0-11.119,7.289-11.119,16.279c0,8.991,4.983,16.279,11.119,16.279
			c1.806,0,3.504-0.629,5.006-1.737c6.452,16.79,19.686,28.306,34.971,28.306c12.601,0,23.813-7.834,30.976-19.997v17.155
			c6.081,0,18.143-11.238,22.893-26.897l40.183-0.026v48.55h-20.684v74.233H352.62v-74.233h-19.289l0.181-48.596l4.902-0.006
			l96.57,122.835h105.227v-74.233h-21.863c0.007-6.246,0.052-26.487,0.078-48.706H521.184z M156.604,275.13
			c-11.248,0-21.385-6.239-28.528-16.224h57.057C177.988,268.891,167.852,275.13,156.604,275.13z M187.58,243.301l-4.234,2.17
			l-4.237-2.17l-4.23,2.17l-4.234-2.17l-4.23,2.17l-4.23-2.17l-4.237,2.17l-4.234-2.17l-4.23,2.17l-4.233-2.17l-4.237,2.17
			l-4.23-2.17l-4.233,2.17l-4.23-2.17l-4.23,2.17l-4.237-2.17v2.623c-0.746,0.688-1.724,1.101-2.8,1.101
			c-2.338,0-4.236-1.973-4.236-4.412c0-2.438,1.898-4.414,4.236-4.414c1.076,0,2.054,0.417,2.8,1.104h67.73V243.301z
			 M193.932,229.195V216.93c4.376,4.421,9.614,11.897,11.478,21.55C202.838,233.859,198.74,230.458,193.932,229.195z
			 M250.656,245.924h-38.194v-0.133c0-2.208-0.171-4.379-0.487-6.491h38.681V245.924z M521.184,239.3
			c20.307,0,47.704,0.071,74.314-0.752c12.361-0.384,24.556-0.969,35.801-1.841c-9.288,3.462-43.661,9.217-91.056,9.217h-21.805
			l0.007-6.62L521.184,239.3z M331.135,232.677l-7.925-10.079l0.064,95.267h18.911v53.355H240.412v-53.355h20.681V177.445h-20.606
			v-54.224h90.077l86.35,109.459h-7.97l-34.942-0.003h-34.9H331.135z M333.538,245.924v-6.62h103.708v6.62H333.538z
			 M507.885,317.864h21.883v53.355h-89.713l-88.368-112.398l7.96-0.006l0,0l35.433-0.032l42.399-0.036l10.295,13.037l-0.091-94.307
			h-21.805v-54.276h103.89v54.114l-21.793,0.346C508.092,191.066,507.91,305.622,507.885,317.864z"/>
		<polygon points="339.799,304.353 339.815,297.629 341.666,297.629 341.669,295.733 335.724,295.733 335.717,297.629 
			337.574,297.629 337.552,304.353 		"/>
		<polygon points="347.375,300.342 345.635,295.733 343.429,295.733 341.947,304.353 344.172,304.353 344.911,299.393 
			344.931,299.393 346.897,304.353 347.792,304.353 349.872,299.393 349.891,299.393 350.511,304.353 352.752,304.353 
			351.47,295.733 349.239,295.733 		"/>
	</g>
	<g>
		<path fill="#FFFFFF" d="M193.932,229.195c4.809,1.263,8.907,4.664,11.478,9.285c-1.863-9.653-7.102-17.128-11.478-21.55V229.195z"
			/>
		<path fill="#FFFFFF" d="M117.05,238.199c-2.338,0-4.236,1.976-4.236,4.414c0,2.438,1.898,4.412,4.236,4.412
			c1.076,0,2.054-0.414,2.8-1.101v-2.623l4.237,2.17l4.23-2.17l4.23,2.17l4.233-2.17l4.23,2.17l4.237-2.17l4.233,2.17l4.23-2.17
			l4.234,2.17l4.237-2.17l4.23,2.17l4.23-2.17l4.234,2.17l4.23-2.17l4.237,2.17l4.234-2.17v-3.998h-67.73
			C119.104,238.616,118.125,238.199,117.05,238.199z"/>
		<polygon fill="#FFFFFF" points="317.013,204.584 317.287,324.129 335.924,324.129 335.924,364.962 246.674,364.962 
			246.674,324.129 267.352,324.129 267.352,171.183 246.748,171.183 246.748,129.482 327.521,129.482 408.943,232.68 
			416.913,232.68 330.563,123.221 240.486,123.221 240.486,177.445 261.093,177.445 261.093,317.864 240.412,317.864 
			240.412,371.22 342.186,371.22 342.186,317.864 323.274,317.864 323.21,222.598 331.135,232.677 339.102,232.677 		"/>
		<path fill="#FFFFFF" d="M529.768,123.201h-103.89v54.276h21.805l0.091,94.307l-10.295-13.037l-42.399,0.036l34.428-0.029
			l24.537,31.102l-0.11-118.644h-21.792v-41.752h91.359v41.724c0,0-21.158,0.446-21.889,0.064
			c0.42,2.625-0.013,152.881-0.013,152.881h21.901v40.833h-80.404l-83.451-106.146l-7.96,0.006l88.368,112.398h89.713v-53.355
			h-21.883c0.025-12.242,0.207-126.798,0.09-140.203l21.793-0.346V123.201z"/>
		<rect x="333.538" y="239.304" fill="#FFFFFF" width="103.708" height="6.62"/>
		<path fill="#FFFFFF" d="M518.438,245.924h21.805c47.395,0,81.768-5.755,91.056-9.217c-11.245,0.872-23.439,1.457-35.801,1.841
			c-26.61,0.823-54.008,0.752-74.314,0.752l-2.738,0.003L518.438,245.924z"/>
		<path fill="#FFFFFF" d="M212.462,245.791v0.133h38.194V239.3h-38.681C212.291,241.412,212.462,243.583,212.462,245.791z"/>
	</g>
	<g>
		<polygon fill="none" points="347.375,300.342 345.635,295.733 343.429,295.733 341.947,304.353 344.172,304.353 344.911,299.393 
			344.931,299.393 346.897,304.353 347.792,304.353 349.872,299.393 349.891,299.393 350.511,304.353 352.752,304.353 
			351.47,295.733 349.239,295.733 		"/>
		<path fill="none" d="M521.184,258.718c51.424-0.93,110.296-6.022,143.487-32.926c-34.154,7.172-102.979,6.885-143.487,6.885
			l-2.726,0.003c0.019-20.435,0.032-38.562,0.013-44.71c8.402-0.152,21.74-0.433,21.74-0.433v-74.776H415.447v75.15h21.799
			l0.051,44.769h-7.085l-94.595-119.896H230.049v75.102l20.607-0.003v44.794h-40.183c-4.75-15.653-16.812-26.894-22.893-26.894
			v26.894h-64.358c-1.844-1.989-4.127-3.165-6.595-3.165c-6.136,0-11.119,7.289-11.119,16.279c0,8.991,4.983,16.279,11.119,16.279
			c1.806,0,3.504-0.629,5.006-1.737c6.452,16.79,19.686,28.306,34.971,28.306c12.601,0,23.813-7.834,30.976-19.997v17.155
			c6.081,0,18.143-11.238,22.893-26.897l40.183-0.026v48.55h-20.684v74.233H352.62v-74.233h-19.289l0.181-48.596l4.902-0.006
			l96.57,122.835h105.227v-74.233h-21.863c0.007-6.246,0.052-26.487,0.078-48.706H521.184z M156.604,275.13
			c-11.248,0-21.385-6.239-28.528-16.224h57.057C177.988,268.891,167.852,275.13,156.604,275.13z"/>
		<polygon fill="none" points="339.799,304.353 339.815,297.629 341.666,297.629 341.669,295.733 335.724,295.733 335.717,297.629 
			337.574,297.629 337.552,304.353 		"/>
		<path fill="#A4A9AD" d="M156.604,275.13c11.248,0,21.385-6.239,28.528-16.224h-57.057
			C135.219,268.891,145.355,275.13,156.604,275.13z"/>
		<path fill="#A4A9AD" d="M684.131,214.922c-25.267,5.474-72.202,8.061-89.086,8.587c-24.025,0.746-48.711,0.752-68.152,0.749
			c0.007-11.1,0.007-21.03,0.007-28.028c9.624-0.19,21.728-0.446,21.728-0.446v-91.446H407.025v85.352l-67.32-85.33H221.624v91.943
			h20.607v27.954l-25.929,0.003c-14.455-31.945-37.147-29.083-37.147-29.083v29.081h-52.823c-2.684-1.899-5.964-3.171-9.704-3.171
			c-13.453,0-19.541,14.277-19.541,24.705c0,10.428,6.479,24.698,19.932,24.698c8.158,15.33,22.283,26.571,39.586,26.571
			c8.345,0,15.982-2.642,22.551-7.085v6.494c0,0,22.722,2.864,37.176-29.151l25.9-0.016v31.703h-20.681v91.074h139.496v-88.836
			l69.852,88.836h117.73v-91.074h-21.844l0.045-31.98C665.175,265.461,677.802,224.187,684.131,214.922z M540.211,307.424v74.233
			H434.984l-96.57-122.835l-4.902,0.006l-0.181,48.596h19.289v74.233H229.972v-74.233h20.684v-48.55l-40.183,0.026
			c-4.75,15.659-16.812,26.897-22.893,26.897v-17.155c-7.163,12.162-18.375,19.997-30.976,19.997
			c-15.285,0-28.519-11.516-34.971-28.306c-1.502,1.108-3.2,1.737-5.006,1.737c-6.136,0-11.119-7.289-11.119-16.279
			c0-8.99,4.983-16.279,11.119-16.279c2.467,0,4.75,1.176,6.595,3.165h64.358v-26.894c6.081,0,18.143,11.241,22.893,26.894h40.183
			v-44.794l-20.607,0.003v-75.102h105.568l94.595,119.896h7.085l-0.051-44.769h-21.799v-75.15h124.764v74.776
			c0,0-13.338,0.281-21.74,0.433c0.02,6.149,0.006,24.275-0.013,44.71l2.726-0.003c40.509,0,109.333,0.288,143.487-6.885
			c-33.191,26.904-92.063,31.996-143.487,32.926h-2.758c-0.026,22.218-0.071,42.46-0.078,48.706H540.211z M352.752,304.353h-2.241
			l-0.62-4.96h-0.02l-2.08,4.96h-0.895l-1.967-4.96h-0.02l-0.739,4.96h-2.225l1.482-8.619h2.206l1.74,4.608l1.864-4.608h2.231
			L352.752,304.353z M335.717,297.629l0.006-1.896h5.945l-0.003,1.896h-1.851l-0.016,6.724h-2.248l0.022-6.724H335.717z"/>
	</g>
	<g>
		<polygon fill="#C4373A" points="246.748,129.482 246.748,171.183 267.352,171.183 267.352,324.129 246.674,324.129 
			246.674,364.962 335.924,364.962 335.924,324.129 317.287,324.129 317.013,204.584 339.102,232.677 374.001,232.677 
			408.943,232.68 327.521,129.482 		"/>
		<path fill="#C4373A" d="M523.502,364.962v-40.833h-21.901c0,0,0.433-150.256,0.013-152.881c0.73,0.381,21.889-0.064,21.889-0.064
			v-41.724h-91.359v41.752h21.792l0.11,118.644l-24.537-31.102l-34.428,0.029l-35.433,0.032l0,0l83.451,106.146H523.502z"/>
	</g>
	<g>
		<g>
			<path fill="#FFFFFF" d="M4.846,489.215v-56.476l39.734,43.416v-41.259h6.161v56.424l-39.734-42.918v40.812H4.846z"/>
			<path fill="#FFFFFF" d="M51.445,493.122l-39.734-42.925v39.715H4.142v-58.981l39.734,43.403v-40.147h7.569V493.122z
				 M10.297,446.6l39.74,42.925v-53.924h-4.75v42.363L5.55,434.561v53.943h4.747V446.6z"/>
		</g>
		<g>
			<path fill="#FFFFFF" d="M62.061,438.901c0-1.163,0.413-2.157,1.24-2.984c0.83-0.833,1.84-1.246,3.025-1.246
				c1.163,0,2.157,0.42,2.987,1.259c0.83,0.847,1.24,1.86,1.24,3.049c0,1.163-0.407,2.151-1.221,2.965
				c-0.82,0.82-1.818,1.221-3.007,1.221c-1.185,0-2.196-0.4-3.025-1.221C62.474,441.13,62.061,440.115,62.061,438.901z
				 M63.433,489.215v-33.947h5.858v33.947H63.433z"/>
			<path fill="#FFFFFF" d="M69.995,489.912h-7.272v-35.354h7.272V489.912z M64.137,488.504h4.453v-32.539h-4.453V488.504z
				 M66.326,443.874c-1.375,0-2.561-0.478-3.523-1.434c-0.959-0.942-1.454-2.138-1.454-3.539c0-1.356,0.488-2.525,1.454-3.488
				c0.962-0.955,2.147-1.446,3.523-1.446c1.347,0,2.525,0.497,3.488,1.473s1.444,2.17,1.444,3.539c0,1.344-0.481,2.52-1.428,3.462
				C68.881,443.396,67.705,443.874,66.326,443.874z M66.326,435.375c-1.004,0-1.834,0.336-2.528,1.033
				c-0.697,0.697-1.033,1.512-1.033,2.493c0,1.026,0.336,1.86,1.03,2.538c0.698,0.691,1.528,1.027,2.532,1.027
				c1.001,0,1.821-0.336,2.503-1.021c0.691-0.685,1.021-1.499,1.021-2.468c0-1.008-0.342-1.841-1.04-2.551
				C68.112,435.724,67.298,435.375,66.326,435.375z"/>
		</g>
		<g>
			<path fill="#FFFFFF" d="M107.585,481.161v6.749c-1.537,0.917-3.262,1.602-5.177,2.061c-1.918,0.458-3.991,0.69-6.217,0.69
				c-5.241,0-9.465-1.666-12.672-4.992c-3.2-3.326-4.802-7.705-4.802-13.118c0-5.438,1.656-9.888,4.97-13.337
				c3.316-3.449,7.56-5.174,12.73-5.174c1.879,0,3.713,0.194,5.509,0.595c1.789,0.394,3.481,0.976,5.064,1.744v6.226
				c-1.486-0.956-3.02-1.698-4.602-2.209c-1.582-0.503-3.19-0.755-4.825-0.755c-3.804,0-6.862,1.194-9.162,3.578
				c-2.303,2.39-3.449,5.561-3.449,9.52c0,3.488,1.15,6.407,3.469,8.752c2.312,2.357,5.212,3.526,8.7,3.526
				c1.753,0,3.472-0.31,5.158-0.93C103.961,483.473,105.725,482.498,107.585,481.161z"/>
			<path fill="#FFFFFF" d="M96.191,491.365c-5.412,0-9.846-1.75-13.179-5.212c-3.316-3.442-4.999-8.021-4.999-13.603
				c0-5.605,1.737-10.256,5.167-13.821c3.436-3.578,7.889-5.399,13.237-5.399c1.918,0,3.823,0.207,5.657,0.613
				c1.841,0.407,3.595,1.015,5.222,1.802l0.397,0.188v7.977l-1.088-0.71c-1.428-0.931-2.923-1.641-4.434-2.125
				c-1.501-0.484-3.055-0.73-4.608-0.73c-3.587,0-6.504,1.138-8.655,3.365c-2.157,2.241-3.252,5.277-3.252,9.029
				c0,3.326,1.066,6.026,3.265,8.261c2.193,2.229,4.873,3.313,8.199,3.313c1.669,0,3.317-0.297,4.909-0.885
				c1.615-0.594,3.343-1.55,5.145-2.842l1.114-0.801v8.525l-0.343,0.207c-1.589,0.949-3.397,1.666-5.377,2.138
				C100.603,491.127,98.458,491.365,96.191,491.365z M96.418,454.744c-4.944,0-9.059,1.667-12.217,4.954
				c-3.175,3.307-4.776,7.621-4.776,12.853c0,5.206,1.547,9.456,4.605,12.627c3.055,3.172,7.146,4.773,12.162,4.773
				c2.157,0,4.192-0.22,6.052-0.672c1.699-0.4,3.255-0.994,4.635-1.77v-5.012c-1.509,0.988-2.968,1.743-4.36,2.254
				c-1.747,0.64-3.562,0.976-5.396,0.976c-3.668,0-6.765-1.26-9.204-3.74c-2.438-2.474-3.672-5.587-3.672-9.249
				c0-4.127,1.224-7.498,3.646-10.004c2.428-2.52,5.68-3.798,9.672-3.798c1.699,0,3.397,0.271,5.042,0.788
				c1.246,0.406,2.483,0.955,3.678,1.634v-4.541c-1.411-0.646-2.929-1.149-4.515-1.498
				C100.038,454.938,98.236,454.744,96.418,454.744z"/>
		</g>
		<g>
			<path fill="#FFFFFF" d="M115.671,489.215v-57.509h5.674v28.793c1.463-2.183,3.216-3.798,5.273-4.863
				c2.051-1.065,4.424-1.596,7.121-1.596c4.008,0,7.137,1.06,9.388,3.191c2.248,2.125,3.375,5.076,3.375,8.861v23.122h-5.936
				v-20.003c0-3.436-0.724-5.993-2.173-7.66c-1.44-1.673-3.678-2.506-6.695-2.506c-1.734,0-3.307,0.316-4.728,0.949
				c-1.427,0.633-2.603,1.524-3.542,2.688c-0.72,0.891-1.234,1.905-1.543,3.042c-0.307,1.143-0.462,3.119-0.462,5.936v17.555
				H115.671z"/>
			<path fill="#FFFFFF" d="M147.209,489.912h-7.347v-20.7c0-3.249-0.675-5.671-2.002-7.201c-1.295-1.499-3.372-2.261-6.162-2.261
				c-1.621,0-3.119,0.297-4.44,0.892c-1.314,0.581-2.418,1.414-3.284,2.486c-0.652,0.808-1.124,1.744-1.404,2.784
				c-0.294,1.071-0.442,3.003-0.442,5.748v18.252h-7.16v-58.916h7.089v27.41c1.24-1.446,2.664-2.583,4.237-3.396
				c2.141-1.111,4.647-1.68,7.447-1.68c4.173,0,7.496,1.137,9.872,3.385c2.387,2.26,3.598,5.412,3.598,9.378V489.912z
				 M141.271,488.504h4.527v-22.411c0-3.565-1.059-6.368-3.155-8.352c-2.108-1.989-5.102-2.997-8.903-2.997
				c-2.573,0-4.86,0.511-6.798,1.519c-1.938,0.994-3.626,2.558-5.009,4.624l-1.292,1.925v-30.408h-4.266v56.101h4.344V471.66
				c0-2.913,0.161-4.909,0.487-6.123c0.33-1.228,0.895-2.332,1.667-3.294c1.011-1.253,2.293-2.222,3.811-2.894
				c1.508-0.672,3.197-1.008,5.015-1.008c3.217,0,5.651,0.924,7.228,2.745c1.56,1.789,2.345,4.527,2.345,8.125V488.504z"/>
		</g>
		<g>
			<path fill="#FFFFFF" d="M155.257,472.332c0-2.5,0.458-4.857,1.376-7.066c0.917-2.222,2.247-4.186,4.007-5.923
				c1.753-1.73,3.743-3.042,5.971-3.952c2.225-0.898,4.602-1.351,7.121-1.351c2.477,0,4.818,0.452,7.037,1.37
				c2.212,0.917,4.221,2.247,6.026,4.004c1.76,1.712,3.09,3.669,4.004,5.884c0.917,2.216,1.373,4.554,1.373,7.034
				c0,2.474-0.456,4.805-1.373,6.994c-0.914,2.189-2.245,4.134-4.004,5.839c-1.806,1.783-3.824,3.146-6.068,4.082
				c-2.234,0.943-4.566,1.414-6.995,1.414c-2.5,0-4.867-0.465-7.101-1.395c-2.238-0.931-4.237-2.261-5.991-3.991
				c-1.76-1.783-3.09-3.76-4.007-5.936C155.715,477.163,155.257,474.825,155.257,472.332z M161.418,472.332
				c0,3.584,1.195,6.62,3.597,9.106c2.399,2.486,5.303,3.727,8.716,3.727c3.391,0,6.271-1.24,8.648-3.727
				c2.374-2.486,3.559-5.522,3.559-9.106c0-3.592-1.185-6.627-3.559-9.113c-2.377-2.487-5.257-3.728-8.648-3.728
				c-3.433,0-6.349,1.24-8.735,3.728C162.61,465.705,161.418,468.74,161.418,472.332z"/>
			<path fill="#FFFFFF" d="M173.732,491.365c-2.574,0-5.057-0.484-7.373-1.453c-2.318-0.956-4.408-2.351-6.217-4.134
				c-1.814-1.84-3.213-3.913-4.162-6.161c-0.946-2.254-1.428-4.702-1.428-7.285c0-2.584,0.481-5.051,1.428-7.338
				c0.949-2.299,2.348-4.366,4.166-6.148c1.809-1.789,3.895-3.171,6.204-4.107c4.557-1.848,10.072-1.886,14.684,0.02
				c2.287,0.949,4.395,2.344,6.252,4.152c1.815,1.77,3.216,3.824,4.169,6.123c0.942,2.286,1.427,4.741,1.427,7.299
				s-0.485,4.999-1.427,7.266c-0.953,2.268-2.354,4.308-4.169,6.078c-1.857,1.834-3.969,3.255-6.288,4.224
				C178.689,490.868,176.241,491.365,173.732,491.365z M173.732,454.744c-2.418,0-4.724,0.433-6.856,1.299
				c-2.131,0.865-4.065,2.144-5.745,3.798c-1.679,1.666-2.974,3.578-3.85,5.696c-0.875,2.105-1.317,4.398-1.317,6.795
				c0,2.39,0.442,4.656,1.317,6.736c0.875,2.086,2.177,4.011,3.859,5.716c1.67,1.646,3.61,2.938,5.761,3.83
				c4.221,1.75,9.204,1.814,13.554-0.02c2.147-0.897,4.111-2.222,5.842-3.927c1.682-1.641,2.98-3.526,3.853-5.619
				c0.875-2.093,1.317-4.354,1.317-6.717c0-2.377-0.442-4.65-1.317-6.763c-0.872-2.112-2.17-4.018-3.85-5.645
				c-1.728-1.687-3.682-2.984-5.803-3.856C178.382,455.19,176.105,454.744,173.732,454.744z M173.732,485.869
				c-3.594,0-6.701-1.324-9.223-3.939c-2.519-2.609-3.794-5.839-3.794-9.598c0-3.76,1.266-6.988,3.775-9.598
				c2.513-2.623,5.623-3.946,9.243-3.946c3.578,0,6.659,1.323,9.159,3.946c2.493,2.609,3.752,5.838,3.752,9.598
				c0,3.759-1.259,6.981-3.752,9.598C180.391,484.545,177.31,485.869,173.732,485.869z M173.732,460.195
				c-3.268,0-5.961,1.15-8.228,3.508c-2.241,2.338-3.381,5.244-3.381,8.629c0,3.384,1.146,6.277,3.4,8.615
				c2.283,2.364,4.967,3.514,8.209,3.514c3.223,0,5.881-1.149,8.138-3.514c2.234-2.338,3.365-5.231,3.365-8.615
				c0-3.385-1.131-6.291-3.365-8.629C179.613,461.346,176.955,460.195,173.732,460.195z"/>
		</g>
		<g>
			<path fill="#FFFFFF" d="M201.524,489.215v-57.509h5.936v57.509H201.524z"/>
			<path fill="#FFFFFF" d="M208.164,489.912h-7.34v-58.916h7.34V489.912z M202.228,488.504h4.531v-56.101h-4.531V488.504z"/>
		</g>
		<g>
			<path fill="#FFFFFF" d="M219.925,489.215v-57.509h5.936v57.509H219.925z"/>
			<path fill="#FFFFFF" d="M226.571,489.912h-7.351v-58.916h7.351V489.912z M220.636,488.504h4.521v-56.101h-4.521V488.504z"/>
		</g>
		<g>
			<path fill="#FFFFFF" d="M234.435,483.492l4.97-3.333c0.943,1.809,2.128,3.159,3.565,4.063c1.431,0.903,3.126,1.35,5.08,1.35
				c1.905,0,3.442-0.465,4.621-1.408c1.175-0.943,1.763-2.177,1.763-3.707c0-1.188-0.407-2.184-1.208-2.972
				c-0.805-0.787-2.187-1.523-4.134-2.183l-0.966-0.336c-8.264-2.849-12.395-6.407-12.395-10.689c0-3.016,1.114-5.477,3.343-7.382
				c2.222-1.905,5.115-2.855,8.681-2.855c2.938,0,5.461,0.588,7.566,1.757c2.102,1.176,3.61,2.842,4.524,4.999l-4.709,2.888
				c-0.694-1.557-1.714-2.758-3.061-3.598s-2.91-1.266-4.696-1.266c-1.708,0-3.094,0.478-4.169,1.434
				c-1.082,0.949-1.615,2.17-1.615,3.655c0,2.073,2.248,3.824,6.75,5.231c0.84,0.271,1.508,0.479,2.005,0.634
				c3.685,1.182,6.249,2.538,7.696,4.056c1.446,1.524,2.17,3.533,2.17,6.032c0,3.217-1.14,5.819-3.433,7.809
				c-2.287,1.996-5.271,2.99-8.955,2.99c-3.168,0-5.861-0.594-8.073-1.782C237.541,487.69,235.769,485.895,234.435,483.492z"/>
			<path fill="#FFFFFF" d="M247.83,491.365c-3.269,0-6.097-0.626-8.403-1.866c-2.322-1.246-4.211-3.152-5.61-5.658l-0.313-0.568
				l6.162-4.14l0.362,0.704c0.881,1.679,1.993,2.958,3.313,3.784c1.312,0.827,2.897,1.247,4.709,1.247
				c1.734,0,3.139-0.42,4.179-1.26c1.011-0.801,1.495-1.834,1.495-3.151c0-1.001-0.32-1.809-0.995-2.468
				c-0.723-0.71-2.025-1.395-3.862-2.027l-0.972-0.336c-8.538-2.939-12.866-6.756-12.866-11.349c0-3.216,1.205-5.884,3.584-7.912
				c2.345-2.015,5.422-3.035,9.143-3.035c3.045,0,5.709,0.626,7.908,1.854c2.238,1.247,3.859,3.042,4.832,5.328l0.242,0.568
				l-5.917,3.63l-0.326-0.736c-0.636-1.421-1.576-2.531-2.79-3.294c-1.23-0.762-2.684-1.149-4.324-1.149
				c-1.537,0-2.751,0.407-3.707,1.253c-0.927,0.814-1.373,1.841-1.373,3.126c0,2.145,3.404,3.662,6.258,4.561
				c0.837,0.271,1.502,0.478,1.993,0.626c3.846,1.233,6.465,2.629,8.009,4.25c1.566,1.646,2.36,3.843,2.36,6.517
				c0,3.41-1.23,6.22-3.675,8.345C254.841,490.3,251.67,491.365,247.83,491.365z M235.374,483.712
				c1.228,1.996,2.81,3.521,4.715,4.547c2.103,1.124,4.706,1.692,7.741,1.692c3.487,0,6.349-0.943,8.493-2.81
				c2.147-1.866,3.19-4.25,3.19-7.279c0-2.338-0.646-4.146-1.973-5.541c-1.363-1.435-3.85-2.739-7.405-3.876
				c-0.487-0.148-1.159-0.361-2.005-0.633c-4.87-1.524-7.24-3.462-7.24-5.903c0-1.692,0.624-3.1,1.854-4.185
				c1.205-1.066,2.764-1.603,4.637-1.603c1.905,0,3.614,0.459,5.067,1.369c1.246,0.775,2.247,1.848,2.978,3.191l3.52-2.164
				c-0.862-1.737-2.196-3.113-3.969-4.102c-1.989-1.11-4.418-1.673-7.221-1.673c-3.375,0-6.143,0.904-8.226,2.681
				c-2.08,1.789-3.094,4.03-3.094,6.853c0,3.921,4.011,7.292,11.917,10.018l0.969,0.336c2.069,0.711,3.507,1.479,4.398,2.352
				c0.94,0.93,1.417,2.092,1.417,3.475c0,1.75-0.685,3.184-2.024,4.263c-1.298,1.033-3.003,1.562-5.063,1.562
				c-2.08,0-3.921-0.49-5.458-1.459c-1.347-0.853-2.496-2.08-3.433-3.649L235.374,483.712z"/>
		</g>
		<g>
			<path fill="#FFFFFF" d="M311.755,459.046c3.536,1.512,6.201,3.514,7.996,6.014c1.796,2.492,2.69,5.451,2.69,8.861
				c0,4.999-1.589,9.029-4.77,12.077c-3.178,3.062-7.389,4.586-12.63,4.586c-4.282,0-7.867-1.098-10.763-3.281
				c-2.894-2.195-4.848-5.303-5.858-9.339l5.858-2.888c0.791,3.288,2.096,5.781,3.917,7.474c1.815,1.691,4.102,2.544,6.846,2.544
				c3.236,0,5.858-0.937,7.864-2.803c2.002-1.866,3.006-4.302,3.006-7.292c0-2.422-0.698-4.527-2.096-6.323
				c-1.398-1.795-3.507-3.307-6.326-4.547l-6.607-2.815c-3.61-1.512-6.3-3.449-8.07-5.826c-1.77-2.377-2.647-5.219-2.647-8.538
				c0-3.856,1.431-7.047,4.301-9.572c2.871-2.519,6.53-3.785,10.983-3.785c3.262,0,6.091,0.698,8.478,2.08
				c2.386,1.389,4.246,3.43,5.583,6.123l-5.341,3.41c-1.211-2.1-2.574-3.669-4.082-4.689c-1.512-1.026-3.217-1.537-5.122-1.537
				c-2.422,0-4.408,0.736-5.955,2.222c-1.543,1.485-2.315,3.378-2.315,5.678c0,1.931,0.591,3.598,1.776,5.012
				c1.188,1.408,3.032,2.654,5.529,3.746L311.755,459.046z"/>
			<path fill="#FFFFFF" d="M305.042,491.288c-4.415,0-8.18-1.156-11.19-3.43s-5.066-5.542-6.119-9.721l-0.136-0.549l7.159-3.533
				l0.207,0.853c0.755,3.14,2.005,5.535,3.71,7.124c1.699,1.589,3.779,2.352,6.369,2.352c3.039,0,5.522-0.879,7.382-2.609
				c1.87-1.744,2.777-3.959,2.777-6.775c0-2.247-0.652-4.23-1.944-5.891c-1.317-1.691-3.352-3.146-6.052-4.333l-6.598-2.816
				c-3.71-1.55-6.523-3.591-8.357-6.052c-1.857-2.486-2.797-5.503-2.797-8.958c0-4.05,1.531-7.447,4.544-10.096
				c2.987-2.629,6.84-3.959,11.451-3.959c3.372,0,6.343,0.724,8.829,2.17c2.5,1.447,4.473,3.604,5.861,6.414l0.281,0.568
				l-6.498,4.152l-0.368-0.639c-1.15-1.996-2.448-3.501-3.866-4.464c-1.385-0.942-2.974-1.421-4.725-1.421
				c-2.257,0-4.046,0.672-5.461,2.035c-1.417,1.356-2.108,3.048-2.108,5.167c0,1.776,0.529,3.262,1.621,4.554
				c1.104,1.317,2.877,2.519,5.267,3.552l7.753,3.423c3.633,1.544,6.423,3.644,8.287,6.239c1.869,2.609,2.819,5.735,2.819,9.275
				c0,5.18-1.676,9.416-4.98,12.588C314.862,489.68,310.447,491.288,305.042,491.288z M289.243,478.352
				c1.011,3.584,2.845,6.406,5.464,8.383c2.754,2.087,6.233,3.146,10.334,3.146c5.028,0,9.117-1.479,12.142-4.386
				c3.02-2.906,4.554-6.794,4.554-11.573c0-3.243-0.865-6.091-2.558-8.455c-1.715-2.383-4.305-4.32-7.702-5.768l-7.76-3.423
				c-2.587-1.124-4.538-2.448-5.784-3.934c-1.292-1.537-1.944-3.378-1.944-5.464c0-2.486,0.85-4.566,2.532-6.182
				c1.673-1.614,3.846-2.428,6.442-2.428c2.038,0,3.892,0.562,5.516,1.659c1.438,0.976,2.752,2.423,3.917,4.296l4.188-2.675
				c-1.243-2.286-2.926-4.056-5.015-5.27c-2.267-1.318-5.002-1.977-8.122-1.977c-4.259,0-7.796,1.214-10.521,3.604
				c-2.731,2.403-4.059,5.361-4.059,9.043c0,3.145,0.843,5.877,2.512,8.111c1.683,2.268,4.299,4.146,7.776,5.594l6.607,2.829
				c2.919,1.278,5.142,2.88,6.604,4.76c1.492,1.912,2.247,4.186,2.247,6.756c0,3.185-1.085,5.812-3.232,7.809
				c-2.125,1.983-4.935,2.984-8.341,2.984c-2.922,0-5.39-0.917-7.331-2.726c-1.747-1.628-3.059-3.979-3.895-6.976L289.243,478.352z"
				/>
		</g>
		<g>
			<path fill="#FFFFFF" d="M331.345,460.047h-6.229v-4.779h6.229v-13.699h5.936v13.699h6.232v4.779h-6.232v29.168h-5.936V460.047z"
				/>
			<path fill="#FFFFFF" d="M337.984,489.912h-7.347v-29.154h-6.233v-6.2h6.233v-13.693h7.347v13.693h6.232v6.2h-6.232V489.912z
				 M332.049,488.504h4.531v-29.161h6.229v-3.378h-6.229v-13.692h-4.531v13.692h-6.232v3.378h6.232V488.504z"/>
		</g>
		<g>
			<path fill="#FFFFFF" d="M381.732,455.268v33.947h-5.645v-6.162c-1.356,2.468-3.097,4.354-5.212,5.658
				c-2.115,1.298-4.482,1.95-7.101,1.95c-4.877,0-8.8-1.679-11.781-5.024c-2.98-3.358-4.473-7.789-4.473-13.305
				c0-5.594,1.447-10.037,4.34-13.344c2.897-3.294,6.766-4.948,11.616-4.948c2.845,0,5.306,0.634,7.398,1.912
				c2.089,1.272,3.778,3.165,5.067,5.696v-6.381H381.732z M376.088,472.551c0-3.836-1.04-6.923-3.133-9.255
				c-2.089-2.338-4.818-3.507-8.18-3.507c-3.491,0-6.21,1.078-8.164,3.229c-1.954,2.15-2.929,5.153-2.929,9.016
				c0,4.108,0.979,7.272,2.948,9.495c1.967,2.228,4.757,3.339,8.364,3.339c3.462,0,6.178-1.079,8.141-3.249
				C375.106,479.462,376.088,476.439,376.088,472.551z"/>
			<path fill="#FFFFFF" d="M363.774,491.365c-5.061,0-9.204-1.775-12.311-5.264c-3.084-3.475-4.647-8.105-4.647-13.77
				c0-5.742,1.521-10.386,4.518-13.81c3.016-3.436,7.102-5.192,12.143-5.192c2.955,0,5.567,0.678,7.767,2.015
				c1.531,0.937,2.868,2.196,3.995,3.772v-4.56h7.195v35.354h-7.05v-4.45c-1.176,1.589-2.564,2.881-4.137,3.844
				C369.025,490.675,366.513,491.365,363.774,491.365z M363.477,454.744c-4.615,0-8.345,1.583-11.086,4.709
				c-2.765,3.151-4.163,7.485-4.163,12.879c0,5.309,1.444,9.623,4.292,12.827c2.826,3.184,6.61,4.792,11.255,4.792
				c2.477,0,4.737-0.62,6.733-1.841c2.002-1.228,3.668-3.042,4.96-5.393l1.327-2.403v8.189h4.228v-32.539h-4.376v8.616l-1.334-2.615
				c-1.214-2.391-2.835-4.218-4.805-5.413C368.537,455.352,366.17,454.744,363.477,454.744z M364.995,485.572
				c-3.805,0-6.795-1.201-8.897-3.572c-2.07-2.351-3.119-5.703-3.119-9.966c0-4.023,1.046-7.221,3.109-9.494
				c2.086-2.286,5.006-3.455,8.688-3.455c3.556,0,6.487,1.259,8.703,3.739c2.202,2.461,3.316,5.735,3.316,9.727
				c0,4.044-1.056,7.26-3.136,9.547C371.563,484.403,368.647,485.572,364.995,485.572z M364.775,460.499
				c-3.313,0-5.813,0.976-7.641,2.99c-1.825,2.009-2.749,4.883-2.749,8.545c0,3.908,0.933,6.95,2.774,9.029
				c1.838,2.087,4.408,3.101,7.835,3.101c3.287,0,5.78-0.981,7.624-3.01c1.834-2.028,2.765-4.922,2.765-8.604
				c0-3.636-0.995-6.594-2.955-8.783C370.462,461.564,367.956,460.499,364.775,460.499z"/>
		</g>
		<g>
			<path fill="#FFFFFF" d="M394.23,460.047h-6.233v-4.779h6.233v-13.699h5.936v13.699h6.232v4.779h-6.232v29.168h-5.936V460.047z"/>
			<path fill="#FFFFFF" d="M400.87,489.912h-7.344v-29.154h-6.232v-6.2h6.232v-13.693h7.344v13.693h6.232v6.2h-6.232V489.912z
				 M394.94,488.504h4.521v-29.161h6.232v-3.378h-6.232v-13.692h-4.521v13.692h-6.239v3.378h6.239V488.504z"/>
		</g>
		<g>
			<path fill="#FFFFFF" d="M443.316,473.106h-26.894v0.523c0,3.637,1.033,6.568,3.112,8.816c2.074,2.234,4.786,3.346,8.125,3.346
				c2.268,0,4.328-0.607,6.162-1.835c1.828-1.221,3.449-3.067,4.851-5.541l4.418,2.971c-1.698,3.062-3.882,5.374-6.523,6.937
				c-2.648,1.557-5.723,2.338-9.21,2.338c-5.167,0-9.346-1.705-12.537-5.128c-3.196-3.41-4.785-7.886-4.785-13.421
				c0-5.322,1.582-9.676,4.747-13.066c3.165-3.384,7.24-5.083,12.2-5.083c5.031,0,9.01,1.608,11.936,4.825
				c2.933,3.216,4.398,7.602,4.398,13.169V473.106z M437.084,468.392c-0.2-2.983-1.195-5.296-2.99-6.91
				c-1.789-1.622-4.243-2.436-7.363-2.436c-2.822,0-5.174,0.847-7.053,2.538c-1.879,1.699-2.965,3.966-3.255,6.808H437.084z"/>
			<path fill="#FFFFFF" d="M427.357,491.365c-5.348,0-9.74-1.802-13.047-5.341c-3.307-3.54-4.979-8.216-4.979-13.912
				c0-5.483,1.659-10.037,4.94-13.551c3.294-3.52,7.57-5.303,12.711-5.303c5.213,0,9.404,1.699,12.459,5.058
				c3.035,3.332,4.579,7.925,4.579,13.641v1.86h-26.894c0.025,3.352,1.014,6.091,2.926,8.145c1.943,2.105,4.437,3.132,7.607,3.132
				c2.119,0,4.057-0.581,5.769-1.718c1.73-1.156,3.287-2.938,4.631-5.309l0.388-0.659l5.573,3.753l-0.31,0.562
				c-1.757,3.165-4.05,5.594-6.795,7.208C434.184,490.545,430.955,491.365,427.357,491.365z M426.982,454.667
				c-4.74,0-8.674,1.634-11.69,4.863c-3.022,3.236-4.554,7.467-4.554,12.582c0,5.321,1.551,9.682,4.6,12.943
				c3.035,3.255,7.085,4.896,12.02,4.896c3.346,0,6.322-0.749,8.848-2.234c2.357-1.396,4.36-3.449,5.949-6.11l-3.249-2.189
				c-1.376,2.241-2.951,3.966-4.695,5.135c-1.938,1.292-4.14,1.95-6.55,1.95c-3.532,0-6.433-1.201-8.647-3.584
				c-2.189-2.357-3.308-5.484-3.308-9.288v-1.221h26.908v-0.452c0-5.348-1.428-9.623-4.218-12.698
				C435.618,456.211,431.781,454.667,426.982,454.667z M437.84,469.103h-22.205l0.084-0.782c0.31-3.003,1.485-5.451,3.494-7.253
				c2.002-1.809,4.527-2.726,7.518-2.726c3.281,0,5.916,0.879,7.835,2.609c1.931,1.744,3.016,4.237,3.216,7.402L437.84,469.103z
				 M417.224,467.694h19.092c-0.29-2.429-1.201-4.341-2.693-5.696c-1.653-1.486-3.972-2.248-6.892-2.248
				c-2.629,0-4.844,0.795-6.581,2.364C418.573,463.541,417.604,465.369,417.224,467.694z"/>
		</g>
		<g>
			<path fill="#FFFFFF" d="M474.854,434.896h6.53v33.792c0,5.49,1.169,9.527,3.5,12.098c2.339,2.577,6.014,3.862,11.006,3.862
				c4.999,0,8.668-1.285,11-3.862c2.338-2.57,3.507-6.607,3.507-12.098v-33.792h6.562v33.792c0,7.351-1.75,12.847-5.244,16.496
				c-3.501,3.649-8.777,5.477-15.824,5.477c-7.027,0-12.291-1.827-15.791-5.477c-3.501-3.649-5.245-9.146-5.245-16.496V434.896z"/>
			<path fill="#FFFFFF" d="M495.891,491.365c-7.195,0-12.678-1.918-16.295-5.689c-3.617-3.766-5.445-9.481-5.445-16.987v-34.502
				h7.938v34.502c0,5.29,1.117,9.197,3.319,11.626c2.189,2.409,5.716,3.63,10.482,3.63s8.28-1.221,10.477-3.63
				c2.202-2.429,3.326-6.336,3.326-11.626v-34.502h7.97v34.502c0,7.506-1.827,13.215-5.438,16.987
				C508.596,489.447,503.099,491.365,495.891,491.365z M475.559,435.601v33.088c0,7.131,1.699,12.518,5.051,16.005
				c3.353,3.488,8.486,5.258,15.281,5.258c6.814,0,11.975-1.77,15.308-5.258c3.358-3.487,5.058-8.874,5.058-16.005v-33.088h-5.154
				v33.088c0,5.651-1.247,9.882-3.688,12.575c-2.474,2.713-6.343,4.089-11.522,4.089s-9.055-1.376-11.522-4.089
				c-2.447-2.693-3.688-6.924-3.688-12.575v-33.088H475.559z"/>
		</g>
		<g>
			<path fill="#FFFFFF" d="M529.205,489.215v-33.947h5.678v5.231c1.459-2.183,3.216-3.798,5.27-4.863
				c2.048-1.065,4.431-1.596,7.124-1.596c4.011,0,7.138,1.06,9.392,3.191c2.247,2.125,3.371,5.076,3.371,8.861v23.122h-5.936
				v-20.003c0-3.436-0.724-5.993-2.17-7.66c-1.453-1.673-3.682-2.506-6.698-2.506c-1.73,0-3.307,0.316-4.733,0.949
				c-1.415,0.633-2.604,1.524-3.54,2.688c-0.724,0.891-1.233,1.905-1.537,3.042c-0.31,1.143-0.465,3.119-0.465,5.936v17.555H529.205
				z"/>
			<path fill="#FFFFFF" d="M560.743,489.912h-7.344v-20.7c0-3.249-0.678-5.671-2.002-7.201c-1.305-1.499-3.378-2.261-6.162-2.261
				c-1.621,0-3.112,0.297-4.443,0.892c-1.317,0.581-2.422,1.414-3.287,2.486c-0.652,0.808-1.124,1.75-1.408,2.784
				c-0.291,1.071-0.433,3.003-0.433,5.748v18.252h-7.163v-35.354h7.085v3.849c1.247-1.446,2.661-2.583,4.244-3.396
				c2.138-1.111,4.644-1.68,7.446-1.68c4.173,0,7.486,1.137,9.869,3.385c2.384,2.26,3.598,5.412,3.598,9.378V489.912z
				 M554.808,488.504h4.521v-22.411c0-3.559-1.053-6.368-3.145-8.352c-2.112-1.989-5.109-2.997-8.907-2.997
				c-2.57,0-4.856,0.511-6.808,1.519c-1.924,1.001-3.616,2.558-5.005,4.624l-1.286,1.925v-6.847h-4.269v32.539h4.34V471.66
				c0-2.906,0.162-4.909,0.491-6.123c0.336-1.221,0.897-2.332,1.673-3.294c1.014-1.247,2.286-2.222,3.804-2.894
				c1.512-0.672,3.197-1.008,5.019-1.008c3.217,0,5.651,0.924,7.228,2.745c1.557,1.802,2.345,4.534,2.345,8.125V488.504z"/>
		</g>
		<g>
			<path fill="#FFFFFF" d="M570.464,438.901c0-1.163,0.413-2.157,1.246-2.984c0.827-0.833,1.835-1.246,3.017-1.246
				c1.169,0,2.163,0.42,2.996,1.259c0.827,0.847,1.234,1.86,1.234,3.049c0,1.163-0.4,2.151-1.221,2.965
				c-0.814,0.82-1.821,1.221-3.01,1.221c-1.182,0-2.189-0.4-3.017-1.221C570.877,441.13,570.464,440.115,570.464,438.901z
				 M571.833,489.215v-33.947h5.871v33.947H571.833z"/>
			<path fill="#FFFFFF" d="M578.408,489.912h-7.279v-35.354h7.279V489.912z M572.55,488.504H577v-32.539h-4.45V488.504z
				 M574.727,443.874c-1.363,0-2.552-0.478-3.514-1.434c-0.969-0.942-1.453-2.138-1.453-3.539c0-1.35,0.484-2.52,1.453-3.488
				c0.962-0.955,2.138-1.446,3.514-1.446c1.356,0,2.531,0.497,3.487,1.473c0.969,0.969,1.447,2.163,1.447,3.539
				c0,1.344-0.479,2.52-1.428,3.462C577.291,443.396,576.108,443.874,574.727,443.874z M574.727,435.375
				c-0.995,0-1.828,0.336-2.52,1.033c-0.697,0.704-1.039,1.512-1.039,2.493c0,1.021,0.342,1.854,1.039,2.538
				c0.691,0.691,1.518,1.027,2.52,1.027c1.008,0,1.834-0.336,2.512-1.021c0.686-0.685,1.021-1.499,1.021-2.468
				c0-1.008-0.343-1.841-1.047-2.551C576.516,435.724,575.701,435.375,574.727,435.375z"/>
		</g>
		<g>
			<path fill="#FFFFFF" d="M601.117,491.32l-16.812-36.053h6.529l10.199,23.704l10.243-23.704h6.536L601.117,491.32z"/>
			<path fill="#FFFFFF" d="M601.117,493L583.2,454.558h8.105l0.181,0.426l9.547,22.205l9.785-22.631h8.086L601.117,493z
				 M585.416,455.965l15.688,33.689l15.604-33.689h-4.967l-10.708,24.789l-10.664-24.789H585.416z"/>
		</g>
		<g>
			<path fill="#FFFFFF" d="M654.389,473.106h-26.9v0.523c0,3.637,1.039,6.568,3.119,8.816c2.08,2.234,4.786,3.346,8.132,3.346
				c2.273,0,4.32-0.607,6.148-1.835c1.834-1.221,3.449-3.067,4.87-5.541l4.411,2.971c-1.712,3.062-3.882,5.374-6.536,6.937
				c-2.642,1.557-5.71,2.338-9.197,2.338c-5.167,0-9.346-1.705-12.543-5.128c-3.185-3.41-4.786-7.886-4.786-13.421
				c0-5.322,1.589-9.676,4.754-13.066c3.171-3.384,7.24-5.083,12.207-5.083c5.024,0,8.997,1.608,11.929,4.825
				c2.926,3.216,4.393,7.602,4.393,13.169V473.106z M648.156,468.392c-0.201-2.983-1.195-5.296-2.984-6.91
				c-1.789-1.622-4.25-2.436-7.369-2.436c-2.816,0-5.167,0.847-7.047,2.538c-1.879,1.699-2.965,3.966-3.268,6.808H648.156z"/>
			<path fill="#FFFFFF" d="M638.436,491.365c-5.348,0-9.74-1.802-13.053-5.341c-3.301-3.54-4.98-8.216-4.98-13.912
				c0-5.483,1.673-10.037,4.947-13.551c3.288-3.52,7.57-5.303,12.718-5.303c5.206,0,9.397,1.699,12.452,5.058
				c3.035,3.332,4.573,7.925,4.573,13.641v1.86h-26.901c0.046,3.352,1.027,6.091,2.939,8.145c1.95,2.105,4.443,3.132,7.608,3.132
				c2.118,0,4.062-0.581,5.761-1.718c1.725-1.156,3.287-2.938,4.645-5.309l0.367-0.659l5.594,3.753l-0.323,0.562
				c-1.757,3.165-4.043,5.594-6.788,7.208S642.033,491.365,638.436,491.365z M638.067,454.667c-4.747,0-8.675,1.634-11.69,4.863
				c-3.029,3.236-4.566,7.467-4.566,12.582c0,5.321,1.55,9.682,4.605,12.943c3.035,3.255,7.078,4.896,12.02,4.896
				c3.352,0,6.323-0.749,8.849-2.234c2.363-1.396,4.359-3.449,5.948-6.11l-3.256-2.189c-1.369,2.241-2.944,3.966-4.695,5.135
				c-1.938,1.292-4.14,1.95-6.542,1.95c-3.54,0-6.446-1.201-8.642-3.584c-2.196-2.357-3.308-5.484-3.308-9.288v-1.221h26.895v-0.452
				c0-5.348-1.415-9.623-4.211-12.698C646.689,456.211,642.859,454.667,638.067,454.667z M648.911,469.103h-22.205l0.084-0.782
				c0.316-3.003,1.492-5.451,3.494-7.253c2.003-1.809,4.534-2.726,7.519-2.726c3.287,0,5.922,0.879,7.841,2.609
				c1.918,1.744,3.01,4.237,3.216,7.402L648.911,469.103z M628.295,467.694h19.086c-0.291-2.429-1.182-4.341-2.681-5.696
				c-1.659-1.486-3.972-2.248-6.897-2.248c-2.623,0-4.832,0.795-6.575,2.364C629.645,463.541,628.676,465.369,628.295,467.694z"/>
		</g>
		<g>
			<path fill="#FFFFFF" d="M663.225,489.215v-33.947h5.16v7.04c1.557-2.945,3.217-5.038,4.96-6.304
				c1.764-1.26,3.901-1.893,6.427-1.893c0.691,0,1.356,0.059,2.002,0.168c0.64,0.11,1.285,0.278,1.925,0.497l-1.925,5.232
				c-0.665-0.22-1.298-0.388-1.893-0.498c-0.594-0.109-1.169-0.168-1.711-0.168c-3.062,0-5.367,1.104-6.892,3.32
				c-1.537,2.215-2.306,5.548-2.306,10.005v16.547H663.225z"/>
			<path fill="#FFFFFF" d="M669.676,489.912h-7.156v-35.354h6.569v5.153c1.214-1.879,2.513-3.313,3.849-4.275
				c1.867-1.344,4.166-2.028,6.834-2.028c0.736,0,1.446,0.064,2.118,0.181c0.679,0.117,1.356,0.291,2.041,0.53l0.685,0.232
				l-2.422,6.549l-0.646-0.22c-0.639-0.213-1.246-0.374-1.795-0.478c-0.543-0.104-1.078-0.155-1.582-0.155
				c-2.842,0-4.916,0.982-6.317,3.022c-1.44,2.08-2.177,5.31-2.177,9.599V489.912z M663.928,488.504h4.341v-15.836
				c0-4.586,0.82-8.08,2.429-10.405c1.666-2.403,4.178-3.624,7.473-3.624c0.594,0,1.207,0.059,1.84,0.182
				c0.427,0.077,0.866,0.181,1.331,0.322l1.446-3.914c-0.381-0.103-0.762-0.193-1.137-0.258c-0.594-0.104-1.227-0.155-1.879-0.155
				c-2.364,0-4.386,0.595-6.014,1.764c-1.659,1.194-3.255,3.235-4.753,6.064l-1.324,2.506v-9.185h-3.753V488.504z"/>
		</g>
		<g>
			<path fill="#FFFFFF" d="M686.224,483.492l4.974-3.333c0.936,1.809,2.125,3.159,3.559,4.063c1.439,0.903,3.126,1.35,5.089,1.35
				c1.899,0,3.437-0.465,4.612-1.408c1.175-0.943,1.763-2.177,1.763-3.707c0-1.188-0.407-2.184-1.208-2.972
				c-0.794-0.787-2.183-1.523-4.133-2.183l-0.963-0.336c-8.268-2.849-12.395-6.407-12.395-10.689c0-3.016,1.117-5.477,3.34-7.382
				c2.229-1.905,5.121-2.855,8.68-2.855c2.945,0,5.471,0.588,7.57,1.757c2.099,1.176,3.61,2.842,4.521,4.999l-4.702,2.888
				c-0.691-1.557-1.718-2.758-3.068-3.598c-1.343-0.84-2.913-1.266-4.688-1.266c-1.712,0-3.101,0.478-4.173,1.434
				c-1.079,0.949-1.608,2.17-1.608,3.655c0,2.073,2.241,3.824,6.743,5.231c0.847,0.271,1.505,0.479,2.009,0.634
				c3.682,1.182,6.252,2.538,7.692,4.056c1.446,1.524,2.17,3.533,2.17,6.032c0,3.217-1.137,5.819-3.43,7.809
				c-2.286,1.996-5.276,2.99-8.952,2.99c-3.171,0-5.864-0.594-8.073-1.782C689.344,487.69,687.561,485.895,686.224,483.492z"/>
			<path fill="#FFFFFF" d="M699.625,491.365c-3.268,0-6.104-0.626-8.402-1.866c-2.325-1.246-4.218-3.152-5.612-5.658l-0.311-0.568
				l6.162-4.14l0.361,0.704c0.872,1.679,1.989,2.958,3.307,3.784c1.317,0.827,2.894,1.247,4.715,1.247
				c1.731,0,3.133-0.42,4.173-1.26c1.014-0.801,1.498-1.834,1.498-3.151c0-1.001-0.322-1.809-0.994-2.468
				c-0.724-0.71-2.021-1.395-3.875-2.027l-0.963-0.336c-8.532-2.939-12.865-6.756-12.865-11.349c0-3.216,1.207-5.884,3.591-7.912
				c2.338-2.015,5.412-3.035,9.132-3.035c3.049,0,5.71,0.626,7.912,1.854c2.235,1.247,3.863,3.042,4.838,5.328l0.239,0.568
				l-5.923,3.63l-0.329-0.736c-0.627-1.421-1.557-2.525-2.784-3.294c-1.227-0.762-2.687-1.149-4.32-1.149
				c-1.537,0-2.758,0.407-3.714,1.253c-0.924,0.814-1.363,1.841-1.363,3.126c0,2.145,3.397,3.662,6.252,4.561
				c0.84,0.271,1.505,0.478,1.996,0.626c3.85,1.233,6.465,2.629,8.002,4.25c1.569,1.646,2.364,3.843,2.364,6.517
				c0,3.417-1.233,6.22-3.669,8.345C706.627,490.3,703.462,491.365,699.625,491.365z M687.166,483.712
				c1.228,1.996,2.811,3.521,4.715,4.547c2.106,1.124,4.709,1.692,7.744,1.692c3.488,0,6.343-0.943,8.494-2.81
				c2.138-1.866,3.184-4.25,3.184-7.279c0-2.338-0.639-4.146-1.97-5.541c-1.356-1.435-3.85-2.732-7.408-3.876
				c-0.484-0.148-1.156-0.361-2.009-0.633c-4.863-1.524-7.24-3.462-7.24-5.903c0-1.692,0.627-3.1,1.854-4.185
				c1.215-1.066,2.771-1.603,4.645-1.603c1.904,0,3.616,0.459,5.076,1.369c1.246,0.775,2.241,1.848,2.965,3.191l3.526-2.164
				c-0.866-1.737-2.202-3.113-3.973-4.102c-1.989-1.11-4.424-1.673-7.228-1.673c-3.364,0-6.142,0.904-8.222,2.688
				c-2.079,1.775-3.094,4.023-3.094,6.846c0,3.921,4.011,7.292,11.923,10.018l0.963,0.336c2.073,0.711,3.507,1.479,4.404,2.352
				c0.931,0.93,1.415,2.092,1.415,3.475c0,1.75-0.685,3.184-2.028,4.263c-1.299,1.033-2.997,1.562-5.058,1.562
				c-2.093,0-3.92-0.49-5.457-1.459c-1.351-0.853-2.507-2.08-3.437-3.649L687.166,483.712z"/>
		</g>
		<g>
			<path fill="#FFFFFF" d="M719.687,438.901c0-1.163,0.42-2.157,1.246-2.984c0.833-0.833,1.841-1.246,3.029-1.246
				c1.163,0,2.157,0.42,2.984,1.259c0.833,0.847,1.246,1.86,1.246,3.049c0,1.163-0.413,2.151-1.228,2.965
				c-0.813,0.82-1.82,1.221-3.003,1.221c-1.188,0-2.196-0.4-3.029-1.221C720.106,441.13,719.687,440.115,719.687,438.901z
				 M721.062,489.215v-33.947h5.864v33.947H721.062z"/>
			<path fill="#FFFFFF" d="M727.631,489.912h-7.272v-35.354h7.272V489.912z M721.766,488.504h4.457v-32.539h-4.457V488.504z
				 M723.962,443.874c-1.382,0-2.563-0.478-3.52-1.434c-0.97-0.942-1.46-2.138-1.46-3.539c0-1.35,0.49-2.52,1.46-3.488
				c0.956-0.955,2.138-1.446,3.52-1.446c1.344,0,2.519,0.497,3.487,1.473c0.963,0.969,1.447,2.163,1.447,3.539
				c0,1.344-0.484,2.52-1.428,3.462C726.514,443.396,725.338,443.874,723.962,443.874z M723.962,435.375
				c-1.007,0-1.834,0.336-2.525,1.033c-0.704,0.704-1.033,1.512-1.033,2.493c0,1.021,0.329,1.854,1.021,2.538
				c0.704,0.691,1.531,1.027,2.538,1.027c1.001,0,1.815-0.336,2.5-1.021s1.026-1.499,1.026-2.468c0-1.008-0.342-1.841-1.046-2.551
				C725.751,435.724,724.931,435.375,723.962,435.375z"/>
		</g>
		<g>
			<path fill="#FFFFFF" d="M740.063,460.047h-6.232v-4.779h6.232v-13.699h5.942v13.699h6.227v4.779h-6.227v29.168h-5.942V460.047z"
				/>
			<path fill="#FFFFFF" d="M746.703,489.912h-7.344v-29.154h-6.232v-6.2h6.232v-13.693h7.344v13.693h6.232v6.2h-6.232V489.912z
				 M740.768,488.504h4.521v-29.161h6.245v-3.378h-6.245v-13.692h-4.521v13.692h-6.232v3.378h6.232V488.504z"/>
		</g>
		<g>
			<path fill="#FFFFFF" d="M757.464,505.762l9.197-19.893l-13.318-30.602h6.711l9.875,24.369l10.464-24.369h6.381l-22.78,50.494
				H757.464z"/>
			<path fill="#FFFFFF" d="M764.445,506.46h-8.086l9.526-20.598l-13.622-31.305h8.274l0.168,0.438l9.242,22.812l9.979-23.251h7.932
				L764.445,506.46z M758.568,505.052h4.967l22.141-49.087h-4.825l-10.941,25.499l-10.327-25.499h-5.167l13.021,29.917
				L758.568,505.052z"/>
		</g>
	</g>
</g>
</svg>
