<?xml version="1.0" encoding="utf-8"?>
<!-- Generator: Adobe Illustrator 16.0.4, SVG Export Plug-In . SVG Version: 6.00 Build 0)  -->
<!DOCTYPE svg PUBLIC "-//W3C//DTD SVG 1.1//EN" "http://www.w3.org/Graphics/SVG/1.1/DTD/svg11.dtd">
<svg version="1.1" id="Layer_1" xmlns="http://www.w3.org/2000/svg" xmlns:xlink="http://www.w3.org/1999/xlink" x="0px" y="0px"
	 width="792px" height="612px" preserveAspectRatio="none" enable-background="new 0 0 792 612" xml:space="preserve">
<path fill="#CCCBCB" d="M518.479,527.214c-3.471-2.699-6.898-5.453-10.423-8.085c-6.054-4.519-11.548-3.013-16.551,1.827
	c-2.522,2.447-4.826,5.112-7.267,7.648c-8.207,8.493-12.475,10.293-19.966,4.261c-10.054-8.092-21.915-11.016-33.394-15.358
	c-8.303-3.136-13.538-8.255-9.98-18.207c2.127-5.95-0.272-10.682-5.76-12.972c-11.69-4.888-20.92-12.829-29.597-21.745
	c-7.699-7.907-18.899-8.943-28.391-13.285c-3.868-1.766-8.497,1.589-10.817,5.753c-1.411,2.543-0.72,5.494,1.622,7.021
	c2.079,1.35,4.802,1.888,7.321,2.338c4.294,0.764,8.769,0.729,12.958,1.841c5.76,1.526,9.335,7.144,8.262,11.785
	c-1.101,4.772-7.825,8.03-12.958,4.759c-12.832-8.167-25.917-8.351-40.487-5.836c-14.049,2.434-28.047-1.711-41.404-6.646
	c-4.949-1.834-9.871-3.968-14.427-6.605c-25.14-14.54-52.188-14.506-79.729-10.709c-3.467,0.478-6.813,1.807-10.225,2.713
	c-4.608,1.221-8.855,0.642-11.762-3.442c-2.801-3.939-2.467-8.336-0.562-12.569c1.813-4.015,3.643-8.058,5.845-11.86
	c6.438-11.104,8.766-23.006,7.246-35.672c-2.379-19.774-0.058-38.656,9.863-56.298c6.241-11.104,6.861-23.646,8.224-35.875
	c0.467-4.186-0.413-8.902-1.963-12.87c-4.795-12.297-9.57-24.689-15.579-36.414c-5.269-10.279-10.323-19.972-9.904-32.215
	c0.313-9.134-5.924-16.387-11.915-22.999c-6.896-7.601-9.884-16.619-9.925-26.652c-0.13-28.234-0.562-56.482,0.068-84.703
	c0.354-16.074,4.935-20.429,20.875-20.92c22.042-0.668,44.117-0.422,66.179-0.416c55.592,0.021,111.188,0.095,166.787,0.239
	c8.814,0.027,17.689-0.034,26.428,0.947c12.692,1.425,16.544,7.921,14.602,17.437c-1.295,6.319-0.525,12.093,1.874,18.03
	c4.942,12.249,9.073,24.833,14.335,36.932c2.298,5.27,3.231,9.741,0.58,14.962c-6.359,12.556-12.134,25.255-20.423,36.925
	c-16.175,22.774-33.251,45.296-38.118,74.109c-0.995,5.91-5.044,11.241-6.489,17.144c-2.617,10.647,3.568,19.693,14.274,21.057
	c6.973,0.886,14.09,0.825,21.138,0.838c32.651,0.055,65.303-0.013,97.954-0.047c7.941-0.007,15.883-0.027,23.824-0.109
	c19.91-0.211,27.286,3.667,20.701,24.431c-4.035,12.727-2.304,24.22,5.658,35.044c2.562,3.477,3.852,7.887,5.849,11.812
	c9.038,17.785,13.578,34.648-8.433,46.974c-2.747,1.54-1.82,4.792,0.048,6.933c2.468,2.828,6.939,5.275,9.202,2.569
	c8.957-10.757,20.368-16.325,33.701-19.073c7.758-1.602,11.67,1.664,11.002,9.693c-0.995,11.786-5.099,22.242-13.333,30.859
	c-5.453,5.705-11.261,11.097-16.585,16.918c-6.633,7.267-4.9,17.424,4.057,22.045c5.439,2.802,11.451,4.561,17.313,6.462
	c8.65,2.795,15.433,7.873,21.602,14.588c7.164,7.784,6.871,17.682-3.763,24.369c-1.479,0.934-3.266,2.358-4.73,2.175
	c-9.55-1.152-15.508,6.884-22.85,9.617c-4.232-3.299-2.569-7.116-3.312-10.354c-3.564-15.487-22.896-30.798-38.452-30.553
	c-6.681,0.103-11.384,4.125-16.087,8.242c-8.575,7.484-16.285,16.55-29.134,16.55C521.606,530.779,520.039,529,518.479,527.214z
	 M568.178,403.391c-9.476-6.284-16.578-11.008-23.694-15.698c-1.445-0.954-2.918-1.881-4.451-2.679
	c-3.988-2.086-8.208-2.945-12.454-1.016c-7.71,3.518-17.062,16.053-16.523,21.84c0.572,6.162,12.324,12.707,23.626,12.475
	c4.199-0.089,8.671-1.145,12.468-2.918C553.358,412.491,559.125,408.64,568.178,403.391z"/>
<polygon fill="#CB3433" points="490.973,411.387 503.42,434.12 529.214,436.758 511.43,455.619 516.89,480.963 493.454,469.887 
	471.041,482.913 474.334,457.201 455.022,439.914 480.489,435.095 "/>
</svg>
