<?xml version="1.0" encoding="utf-8"?>
<!-- Generator: Adobe Illustrator 16.0.4, SVG Export Plug-In . SVG Version: 6.00 Build 0)  -->
<!DOCTYPE svg PUBLIC "-//W3C//DTD SVG 1.1//EN" "http://www.w3.org/Graphics/SVG/1.1/DTD/svg11.dtd">
<svg version="1.1" id="Layer_1" xmlns="http://www.w3.org/2000/svg" xmlns:xlink="http://www.w3.org/1999/xlink" x="0px" y="0px"
	 width="792px" height="612px" preserveAspectRatio="none" enable-background="new 0 0 792 612" xml:space="preserve">
<g>
	<path fill="none" stroke="#CDCCCC" stroke-width="8.7017" d="M548.562,580.566c-4.324-3.366-8.599-6.791-12.993-10.071
		c-7.545-5.633-14.395-3.764-20.632,2.278c-3.145,3.05-6.007,6.373-9.058,9.534c-10.231,10.598-15.552,12.84-24.882,5.311
		c-12.534-10.086-27.328-13.732-41.63-19.145c-10.35-3.908-16.877-10.291-12.448-22.698c2.658-7.418-0.342-13.308-7.174-16.163
		c-14.581-6.092-26.079-15.992-36.896-27.106c-9.599-9.857-23.564-11.149-35.389-16.562c-4.822-2.201-10.593,1.988-13.49,7.172
		c-1.759,3.17-0.896,6.851,2.019,8.753c2.596,1.683,5.986,2.362,9.13,2.915c5.35,0.951,10.928,0.909,16.151,2.304
		c7.176,1.902,11.633,8.896,10.303,14.683c-1.377,5.957-9.755,10.011-16.154,5.939c-15.993-10.18-32.309-10.409-50.468-7.273
		c-17.514,3.034-34.964-2.134-51.62-8.285c-6.169-2.294-12.3-4.945-17.985-8.234c-31.344-18.125-65.062-18.082-99.389-13.35
		c-4.325,0.595-8.493,2.252-12.746,3.391c-5.745,1.521-11.043,0.799-14.663-4.291c-3.489-4.912-3.081-10.394-0.706-15.679
		c2.261-4.997,4.542-10.035,7.283-14.777c8.021-13.843,10.928-28.679,9.033-44.469c-2.97-24.651-0.072-48.19,12.296-70.174
		c7.78-13.851,8.553-29.487,10.249-44.731c0.582-5.218-0.515-11.094-2.443-16.044c-5.978-15.334-11.931-30.779-19.421-45.399
		c-6.574-12.814-12.87-24.894-12.352-40.156c0.396-11.391-7.385-20.433-14.85-28.671c-8.6-9.479-12.322-20.721-12.376-33.226
		c-0.166-35.197-0.706-70.412,0.089-105.592c0.442-20.042,6.152-25.472,26.024-26.08c27.482-0.837,54.997-0.531,82.5-0.522
		c69.303,0.025,138.61,0.123,207.926,0.297c10.997,0.034,22.053-0.042,32.946,1.181c15.823,1.776,20.623,9.879,18.202,21.737
		c-1.614,7.877-0.654,15.071,2.345,22.477c6.161,15.271,11.311,30.961,17.872,46.041c2.862,6.568,4.027,12.147,0.722,18.657
		c-7.928,15.653-15.127,31.484-25.459,46.032c-20.165,28.395-41.46,56.467-47.521,92.387c-1.248,7.368-6.296,14.009-8.097,21.373
		c-3.259,13.269,4.454,24.545,17.803,26.249c8.692,1.104,17.565,1.028,26.343,1.045c40.712,0.067,81.408-0.017,122.111-0.06
		c9.9-0.009,19.8-0.035,29.699-0.141c24.822-0.259,34.017,4.567,25.809,30.451c-5.031,15.866-2.873,30.202,7.061,43.696
		c3.187,4.333,4.802,9.831,7.291,14.726c11.269,22.172,16.919,43.193-10.511,58.55c-3.433,1.919-2.277,5.982,0.06,8.642
		c3.075,3.527,8.649,6.577,11.463,3.203c11.166-13.409,25.399-20.352,42.013-23.776c9.671-1.988,14.547,2.074,13.716,12.093
		c-1.24,14.685-6.348,27.729-16.622,38.47c-6.79,7.104-14.03,13.834-20.675,21.091c-8.269,9.059-6.11,21.72,5.056,27.481
		c6.781,3.483,14.285,5.677,21.584,8.056c10.784,3.476,19.239,9.815,26.93,18.186c8.932,9.704,8.566,22.042-4.69,30.38
		c-1.844,1.163-4.07,2.938-5.897,2.709c-11.905-1.435-19.341,8.584-28.484,11.991c-5.269-4.113-3.204-8.871-4.13-12.899
		c-4.444-19.307-28.545-38.394-47.935-38.087c-8.329,0.128-14.201,5.142-20.064,10.273c-10.69,9.331-20.301,20.634-36.318,20.634
		C552.463,585.01,550.51,582.792,548.562,580.566z M610.521,426.205c-11.812-7.836-20.667-13.724-29.548-19.57
		c-1.802-1.199-3.636-2.354-5.548-3.34c-4.971-2.608-10.231-3.68-15.525-1.274c-9.603,4.384-21.261,20.012-20.599,27.227
		c0.713,7.682,15.373,15.84,29.462,15.55c5.234-0.109,10.8-1.427,15.533-3.637C592.047,437.549,599.236,432.747,610.521,426.205z"/>
	<polygon fill="#CC3533" stroke="#CDCCCC" stroke-width="8.7017" points="514.275,436.172 529.793,464.512 561.947,467.801 
		539.776,491.314 546.584,522.908 517.368,509.101 489.429,525.339 493.532,493.285 469.459,471.735 501.205,465.728 	"/>
</g>
</svg>
