<?xml version="1.0" encoding="utf-8"?>
<!-- Generator: Adobe Illustrator 16.0.4, SVG Export Plug-In . SVG Version: 6.00 Build 0)  -->
<!DOCTYPE svg PUBLIC "-//W3C//DTD SVG 1.1//EN" "http://www.w3.org/Graphics/SVG/1.1/DTD/svg11.dtd">
<svg version="1.1" id="Layer_1" xmlns="http://www.w3.org/2000/svg" xmlns:xlink="http://www.w3.org/1999/xlink" x="0px" y="0px"
	 width="792px" height="612px" preserveAspectRatio="none" viewBox="0 0 792 612" enable-background="new 0 0 792 612" xml:space="preserve">
<g>
	<g>
		<path fill="#C4373A" d="M206.273,475.222V345.676h52.197h6.455c17.524,0,29.338,3.056,35.446,9.155
			c6.105,6.107,9.155,17.892,9.155,35.365c0,17.327-2.909,28.845-8.73,34.539c-5.817,5.689-17.589,8.545-35.299,8.545l-5.698,0.085
			h-28.942v41.856H206.273z M230.855,412.68h27.995c11.132,0,18.204-1.286,21.21-3.844c3.005-2.554,4.509-8.617,4.509-18.168
			c0-10.947-1.252-17.731-3.75-20.361c-2.502-2.629-9.002-3.945-19.505-3.945h-30.459V412.68z"/>
		<path fill="#C4373A" d="M325.187,475.222V345.676h63.872c15.875,0,26.822,2.754,32.832,8.266
			c6.006,5.498,9.022,15.463,9.022,29.89c0,13.096-1.504,22.056-4.511,26.86c-3.008,4.804-9.155,8.127-18.457,9.96v0.854
			c14.355,0.889,21.535,9.271,21.535,25.151v28.564h-24.574v-23.631c0-13.346-6.581-20.027-19.742-20.027h-35.395v43.658H325.187z
			 M349.769,410.873h35.301c8.412,0,14-1.49,16.754-4.506c2.744-3.003,4.123-9.035,4.123-18.079c0-9.23-1.184-15.196-3.559-17.888
			c-2.371-2.695-7.576-4.039-15.61-4.039h-37.01V410.873z"/>
		<path fill="#C4373A" d="M475.042,345.676v129.546H450.46V345.676H475.042z"/>
		<path fill="#C4373A" d="M498.006,475.222V345.676h63.676c18.097,0,30.767,3.95,38.013,11.864
			c7.247,7.909,10.863,21.771,10.863,41.567c0,32.331-2.904,53.106-8.728,62.311c-5.828,9.194-18.955,13.804-39.392,13.804H498.006z
			 M522.588,454.531h35.02c11.766,0,19.373-2.714,22.82-8.109c3.443-5.41,5.17-17.354,5.17-35.829c0-19.11-1.549-31.26-4.645-36.446
			c-3.105-5.188-10.383-7.785-21.829-7.785h-36.536V454.531z"/>
		<path fill="#C4373A" d="M650.515,366.361v33.417h60.735v18.119h-60.735v36.634h64.624v20.69h-89.211V345.676h88.646v20.686
			H650.515z"/>
	</g>
	<g>
		<path fill="#C4373A" d="M112.446,271.367h30.401v4.391l-1.871,19.338c-3.73,17.603-21.949,26.394-54.657,26.394
			c-23.998,0-39.955-4.329-47.866-12.99c-7.91-8.67-11.864-26.108-11.864-52.333c0-25.597,3.955-42.844,11.864-51.732
			c7.912-8.879,23.288-13.337,46.133-13.337c22.041,0,36.972,3.23,44.792,9.671c7.82,6.446,11.735,18.688,11.735,36.736H110.85
			c0-14.84-8.579-22.273-25.732-22.273c-12.18,0-19.818,2.362-22.93,7.073c-3.11,4.711-4.669,16.264-4.669,34.659
			c0,17.776,1.713,28.96,5.136,33.524c3.418,4.591,11.797,6.877,25.132,6.877c10.485,0,17.22-1.579,20.198-4.729
			C110.958,289.478,112.446,282.391,112.446,271.367z"/>
		<path fill="#C4373A" d="M221.24,191.098c24.618,0,40.755,3.941,48.398,11.807c7.643,7.856,11.466,24.467,11.466,49.792
			c0,28.261-3.737,46.803-11.202,55.598c-7.462,8.795-23.199,13.194-47.197,13.194c-26.04,0-42.908-4.084-50.595-12.256
			c-7.689-8.181-11.535-26.18-11.535-54.005c0-26.745,3.779-44.129,11.337-52.128C179.464,195.102,195.908,191.098,221.24,191.098z
			 M220.975,215.231c-12.711,0-20.799,2.291-24.269,6.868c-3.465,4.578-5.196,15.263-5.196,32.065
			c0,19.195,1.644,31.202,4.931,36.002c3.29,4.795,11.513,7.197,24.667,7.197c12.708,0,20.732-2.535,24.062-7.603
			c3.332-5.066,4.998-17.238,4.998-36.527c0-16.272-1.73-26.669-5.196-31.197C241.503,217.504,233.502,215.231,220.975,215.231z"/>
		<path fill="#C4373A" d="M337.095,138.04v181.985h-30.528V138.04H337.095z"/>
		<path fill="#7D868C" d="M416.144,191.521c23.142,0,38.044,3.844,44.708,11.521c6.654,7.688,9.982,24.876,9.982,51.559
			c0,29.187-3.346,47.568-10.036,55.162c-6.687,7.585-22.874,11.384-48.569,11.384c-23.15,0-38.115-3.746-44.896-11.246
			c-6.779-7.5-10.172-24-10.172-49.512c0-30.352,3.33-49.437,9.987-57.204C373.802,195.404,390.14,191.521,416.144,191.521z
			 M414.275,212.233c-16.239,0-25.726,2.082-28.464,6.254c-2.736,4.177-4.106,18.604-4.106,43.298
			c0,18.301,1.602,29.307,4.812,33.044c3.2,3.728,12.645,5.601,28.319,5.601c14.991,0,23.986-2.1,26.971-6.304
			c2.985-4.204,4.48-16.931,4.48-38.213c0-21.34-1.415-33.96-4.244-37.844C439.214,214.182,429.952,212.233,414.275,212.233z"/>
		<path fill="#7D868C" d="M605.411,192.628v127.397h-40.972l-36.397-69.904c-1.806-3.479-4.636-9.582-8.497-18.283l-4.102-9.155
			l-4.012-9.138h-0.935l0.374,8.399l0.284,8.305l0.178,16.7v73.076h-24.169V192.628h40.972l33.128,64.584
			c2.927,5.739,6.316,12.665,10.178,20.815l4.85,10.36l4.857,10.454h0.832l-0.271-8.212l-0.284-8.212l-0.188-16.419v-73.37H605.411z
			"/>
		<path fill="#7D868C" d="M649.456,212.985v32.848h59.73v17.83h-59.73v36.016h63.556v20.348h-87.725V192.628h87.164v20.357H649.456z
			"/>
		<path fill="#C4373A" d="M765.425,138.04v181.985H734.89V138.04H765.425z"/>
	</g>
</g>
</svg>
