<?xml version="1.0" encoding="utf-8"?>
<!-- Generator: Adobe Illustrator 16.0.4, SVG Export Plug-In . SVG Version: 6.00 Build 0)  -->
<!DOCTYPE svg PUBLIC "-//W3C//DTD SVG 1.1//EN" "http://www.w3.org/Graphics/SVG/1.1/DTD/svg11.dtd">
<svg version="1.1" id="Layer_1" xmlns="http://www.w3.org/2000/svg" xmlns:xlink="http://www.w3.org/1999/xlink" x="0px" y="0px"
	 width="792px" height="612px" viewBox="0 0 792 612" enable-background="new 0 0 792 612" xml:space="preserve">
<g>
	<path fill="none" stroke="#CDCCCC" d="M413.954,337.311c-0.497-0.387-0.988-0.781-1.493-1.158
		c-0.867-0.647-1.654-0.432-2.371,0.262c-0.361,0.351-0.691,0.732-1.041,1.096c-1.176,1.217-1.787,1.475-2.86,0.61
		c-1.44-1.159-3.14-1.578-4.784-2.2c-1.189-0.449-1.939-1.183-1.43-2.608c0.305-0.853-0.039-1.53-0.825-1.858
		c-1.675-0.7-2.997-1.838-4.24-3.115c-1.103-1.133-2.708-1.281-4.067-1.903c-0.554-0.253-1.217,0.228-1.55,0.824
		c-0.202,0.364-0.103,0.787,0.232,1.006c0.298,0.193,0.688,0.271,1.049,0.335c0.615,0.109,1.256,0.104,1.856,0.264
		c0.825,0.219,1.337,1.023,1.184,1.688c-0.158,0.684-1.121,1.15-1.856,0.682c-1.838-1.17-3.713-1.196-5.8-0.836
		c-2.013,0.349-4.018-0.245-5.932-0.952c-0.709-0.263-1.414-0.568-2.067-0.946c-3.602-2.083-7.477-2.078-11.422-1.534
		c-0.497,0.068-0.976,0.259-1.465,0.389c-0.66,0.175-1.269,0.092-1.685-0.493c-0.401-0.564-0.354-1.194-0.081-1.801
		c0.26-0.575,0.522-1.154,0.837-1.699c0.922-1.591,1.256-3.296,1.038-5.11c-0.341-2.833-0.008-5.538,1.413-8.065
		c0.894-1.591,0.983-3.388,1.178-5.14c0.067-0.6-0.059-1.275-0.281-1.844c-0.687-1.762-1.371-3.537-2.232-5.217
		c-0.755-1.473-1.479-2.861-1.419-4.615c0.045-1.309-0.849-2.348-1.707-3.295c-0.988-1.089-1.416-2.381-1.422-3.818
		c-0.019-4.045-0.081-8.092,0.01-12.135c0.051-2.303,0.707-2.927,2.991-2.997c3.158-0.096,6.32-0.061,9.481-0.06
		c7.964,0.003,15.929,0.014,23.895,0.034c1.263,0.004,2.534-0.005,3.786,0.136c1.818,0.204,2.37,1.135,2.092,2.498
		c-0.186,0.905-0.075,1.732,0.269,2.583c0.708,1.755,1.3,3.558,2.054,5.291c0.329,0.755,0.463,1.396,0.083,2.144
		c-0.911,1.799-1.738,3.618-2.926,5.29c-2.317,3.263-4.764,6.489-5.461,10.617c-0.143,0.847-0.723,1.61-0.93,2.456
		c-0.375,1.525,0.511,2.821,2.045,3.017c0.999,0.127,2.019,0.118,3.028,0.12c4.678,0.008,9.355-0.002,14.033-0.007
		c1.138-0.001,2.275-0.004,3.413-0.016c2.853-0.03,3.909,0.525,2.966,3.5c-0.578,1.823-0.33,3.47,0.811,5.021
		c0.367,0.498,0.552,1.13,0.838,1.692c1.295,2.548,1.945,4.964-1.208,6.729c-0.394,0.221-0.261,0.687,0.007,0.993
		c0.354,0.405,0.994,0.756,1.318,0.368c1.283-1.541,2.918-2.339,4.828-2.732c1.111-0.229,1.672,0.238,1.576,1.389
		c-0.143,1.688-0.73,3.187-1.91,4.421c-0.781,0.817-1.613,1.59-2.376,2.424c-0.95,1.041-0.702,2.496,0.581,3.158
		c0.779,0.401,1.641,0.653,2.48,0.926c1.239,0.4,2.211,1.128,3.095,2.09c1.026,1.115,0.984,2.533-0.539,3.491
		c-0.212,0.134-0.468,0.338-0.678,0.312c-1.368-0.165-2.222,0.986-3.273,1.378c-0.606-0.473-0.368-1.02-0.475-1.483
		c-0.511-2.219-3.28-4.412-5.509-4.377c-0.957,0.015-1.631,0.591-2.305,1.181c-1.229,1.072-2.333,2.371-4.174,2.371
		C414.402,337.821,414.178,337.566,413.954,337.311z M421.074,319.571c-1.357-0.9-2.375-1.577-3.395-2.249
		c-0.207-0.137-0.418-0.27-0.638-0.384c-0.571-0.299-1.176-0.422-1.784-0.146c-1.104,0.504-2.444,2.3-2.367,3.129
		c0.082,0.883,1.766,1.82,3.385,1.787c0.602-0.013,1.242-0.164,1.786-0.418C418.951,320.875,419.777,320.323,421.074,319.571z"/>
	<polygon fill="#CC3533" stroke="#CDCCCC" points="410.014,320.717 411.797,323.974 415.492,324.352 412.944,327.054 
		413.727,330.685 410.369,329.098 407.158,330.964 407.63,327.28 404.863,324.804 408.512,324.113 	"/>
</g>
</svg>
