<?xml version="1.0" encoding="utf-8"?>
<!-- Generator: Adobe Illustrator 22.1.0, SVG Export Plug-In . SVG Version: 6.00 Build 0)  -->
<svg version="1.1" id="Layer_1" xmlns="http://www.w3.org/2000/svg" xmlns:xlink="http://www.w3.org/1999/xlink" x="0px" y="0px"
	 viewBox="0 0 19 21" style="enable-background:new 0 0 19 21;" xml:space="preserve">
<style type="text/css">
	.st0{display:none;}
	.st1{display:inline;fill:#5EC4C8;}
	.st2{display:inline;}
	.st3{fill:#FFFFFF;}
	.st4{fill:none;stroke:#FFFFFF;}
	.st5{fill:#33CC33;}
</style>
<g id="Layer_1_1_" class="st0">
	<rect class="st1" width="19" height="21"/>
</g>
<g id="ADA_-_wheelchair" class="st0">
	<g class="st2">
		<path class="st3" d="M10.5,17.2c-0.7,0.4-1.5,0.6-2.3,0.6s-1.6-0.2-2.3-0.6s-1.3-1-1.7-1.7c-0.4-0.7-0.6-1.5-0.6-2.3
			s0.2-1.6,0.6-2.3c0.2-0.4,0.5-0.7,0.8-1L5.4,12c-0.2,0.4-0.2,0.8-0.3,1.2c0,0.5,0.1,1.1,0.4,1.5c0.3,0.5,0.6,0.9,1.1,1.1
			c0.5,0.3,1,0.4,1.5,0.4s1.1-0.1,1.5-0.4s0.9-0.6,1.1-1.1l0.7,1.6C11.2,16.7,10.9,16.9,10.5,17.2z M7.1,3.2c1,0,1.5,0.5,1.5,1.4
			c0,1.1-0.4,1.6-1.3,1.6l0.2,2.2h2.7c0.1,0,0.2,0.5,0.3,1.4l0,0H7.8l0.1,1h4.3c0.1,0,0.6,1.4,1.5,3.9l1.3-0.4l0.5,1.4
			c0,0.1-0.9,0.4-2.7,0.9c-0.1-0.2-0.6-1.6-1.6-4.4H6.5c-0.1,0-0.4-2.6-0.9-7.8C5.6,3.7,6.1,3.2,7.1,3.2z"/>
	</g>
</g>
<g id="question-square" class="st0">
	<g class="st2">
		<polygon class="st4" points="15.2,16.7 9.5,16.7 3.8,16.7 3.8,8.9 3.8,4.3 9.5,4.3 15.2,4.3 15.2,8.9 		"/>
		<polyline class="st4" points="5.8,8.7 7.2,6.9 12,6.9 13.2,8.7 11.9,10 9.4,10.6 9.4,12.4 		"/>
		<line class="st4" x1="9.4" y1="13.5" x2="9.4" y2="14.8"/>
	</g>
</g>
<g id="document" class="st0">
	<g class="st2">
		<polygon class="st4" points="16.1,8.7 16.1,17.6 9.5,17.6 2.9,17.6 2.9,10.5 2.9,3.4 11.1,3.4 		"/>
		<polyline class="st4" points="11.1,3.4 11.1,8.7 16.1,8.7 		"/>
		<line class="st4" x1="4.8" y1="11.7" x2="14.1" y2="11.7"/>
		<line class="st4" x1="4.8" y1="15" x2="14.1" y2="15"/>
		<rect x="5.4" y="5.7" class="st4" width="3.1" height="3.1"/>
	</g>
</g>
<path class="st5" d="M18,4.1c-0.5-1.7-1.2-2-1.7-2c-2,0-4.4,3.3-5.5,5c-0.2-0.2-0.4-0.3-0.6-0.3H8.9c-0.3,0-0.5,0.1-0.6,0.3
	c-1.1-1.7-3.5-5-5.5-5c-0.5,0-1.2,0.4-1.7,2C0.7,5.2,0.6,6.5,0.6,8c0,0.6,0.1,6.3,2.1,6.3c1.7,0,3.9-2.7,5.2-4.5
	c-0.2,1.7-0.5,4.4-0.8,5.6C6.4,18,3.5,18,3.5,18v0.9c1.2,0,3.7-0.7,4.4-3.1c0.4-1.4,0.7-4.2,0.9-6h0.1h1.2h0.1
	c0.2,1.8,0.5,4.6,0.9,6c0.7,2.5,3.1,3.1,4.4,3.1V18c0,0-2.9,0-3.5-2.5c-0.3-1.3-0.6-3.9-0.8-5.6c1.3,1.8,3.5,4.5,5.2,4.5
	c2.1,0,2.1-5.7,2.1-6.3C18.4,6.5,18.3,5.2,18,4.1z M2.7,13.5c-0.5,0-1.3-2.1-1.3-5.4c0-1.4,0.1-2.7,0.4-3.7C2.1,3.5,2.4,3,2.7,3
	C4.4,3,6.9,6.6,8,8.2C6.6,10.4,4.1,13.5,2.7,13.5z M8.9,8.9V7.6h1.2v1.3H8.9z M16.3,13.5c-1.4,0-3.9-3.1-5.3-5.2
	c1-1.7,3.6-5.2,5.3-5.2c0.3,0,0.6,0.5,0.9,1.4s0.4,2.2,0.4,3.7C17.6,11.4,16.8,13.5,16.3,13.5z"/>
</svg>
