<?xml version="1.0" encoding="utf-8"?>
<!-- Generator: Adobe Illustrator 16.0.4, SVG Export Plug-In . SVG Version: 6.00 Build 0)  -->
<!DOCTYPE svg PUBLIC "-//W3C//DTD SVG 1.1//EN" "http://www.w3.org/Graphics/SVG/1.1/DTD/svg11.dtd">
<svg version="1.1" id="instagram" xmlns="http://www.w3.org/2000/svg" xmlns:xlink="http://www.w3.org/1999/xlink" x="0px" y="0px"
	 width="20.41px" height="20.41px" viewBox="0 0 20.41 20.41" enable-background="new 0 0 20.41 20.41" xml:space="preserve">
<g>
	<path fill="#FFFFFF" d="M16.527,2.151H3.883c-0.957,0-1.732,0.775-1.732,1.732v12.644c0,0.956,0.775,1.731,1.732,1.731h12.645
		c0.955,0,1.732-0.775,1.732-1.731V3.884C18.26,2.927,17.482,2.151,16.527,2.151z M7.279,8.657c0.068-0.131,0.145-0.256,0.229-0.375
		c0.004-0.004,0.004-0.006,0.008-0.01c0.061-0.085,0.125-0.168,0.193-0.247c0.004-0.005,0.01-0.011,0.014-0.016
		C7.789,7.935,7.857,7.861,7.93,7.792c0.008-0.007,0.016-0.014,0.023-0.021C7.975,7.75,7.998,7.729,8.021,7.709
		c0.008-0.008,0.018-0.016,0.025-0.022C8.088,7.651,8.129,7.617,8.17,7.585c0.012-0.01,0.023-0.019,0.035-0.027
		C8.227,7.541,8.248,7.524,8.27,7.509c0.016-0.011,0.031-0.021,0.045-0.031c0.027-0.02,0.055-0.039,0.082-0.057
		s0.053-0.034,0.08-0.051c0.02-0.012,0.039-0.023,0.059-0.035C8.557,7.323,8.576,7.312,8.598,7.3
		c0.018-0.012,0.037-0.021,0.057-0.032c0.037-0.019,0.072-0.038,0.109-0.056c0.016-0.008,0.031-0.016,0.049-0.022
		C8.84,7.177,8.867,7.164,8.895,7.152C8.912,7.146,8.928,7.138,8.945,7.13C8.98,7.116,9.014,7.103,9.047,7.091
		C9.061,7.085,9.074,7.079,9.09,7.075c0.037-0.014,0.076-0.027,0.113-0.039C9.219,7.03,9.234,7.026,9.25,7.021
		c0.035-0.011,0.07-0.021,0.104-0.03c0.014-0.002,0.023-0.006,0.037-0.009C9.436,6.971,9.48,6.96,9.527,6.95
		c0.012-0.002,0.025-0.005,0.039-0.008c0.037-0.007,0.074-0.014,0.111-0.02c0.014-0.002,0.025-0.004,0.039-0.006
		c0.047-0.008,0.096-0.014,0.145-0.019c0.008-0.001,0.018-0.001,0.025-0.003C9.93,6.892,9.971,6.89,10.012,6.887
		c0.014-0.001,0.027-0.001,0.043-0.003c0.049-0.002,0.1-0.003,0.15-0.003s0.1,0.001,0.15,0.003c0.014,0.002,0.027,0.002,0.041,0.003
		c0.043,0.003,0.084,0.005,0.125,0.009c0.008,0.002,0.018,0.002,0.027,0.003c0.049,0.005,0.096,0.011,0.145,0.019
		c0.012,0.002,0.025,0.004,0.039,0.006c0.037,0.006,0.074,0.013,0.111,0.02c0.012,0.003,0.025,0.006,0.039,0.008
		c0.045,0.01,0.092,0.021,0.137,0.032c0.012,0.003,0.023,0.007,0.035,0.009c0.035,0.01,0.07,0.02,0.104,0.03
		c0.016,0.005,0.031,0.009,0.047,0.015c0.039,0.012,0.076,0.025,0.115,0.039c0.014,0.004,0.027,0.01,0.041,0.016
		c0.035,0.012,0.068,0.025,0.102,0.039c0.018,0.008,0.035,0.016,0.053,0.022c0.027,0.012,0.055,0.024,0.082,0.036
		c0.016,0.008,0.031,0.016,0.047,0.023c0.037,0.018,0.074,0.037,0.111,0.056c0.018,0.011,0.037,0.021,0.057,0.032
		c0.021,0.012,0.041,0.023,0.062,0.035c0.02,0.012,0.039,0.023,0.059,0.035c0.027,0.017,0.053,0.033,0.078,0.051
		c0.027,0.018,0.057,0.037,0.082,0.057c0.016,0.01,0.031,0.021,0.047,0.031c0.021,0.016,0.043,0.032,0.064,0.049
		c0.012,0.009,0.021,0.018,0.033,0.027c0.043,0.032,0.084,0.066,0.123,0.102c0.01,0.007,0.018,0.015,0.027,0.022
		c0.023,0.021,0.045,0.041,0.068,0.062c0.008,0.008,0.014,0.015,0.021,0.021c0.072,0.069,0.143,0.143,0.209,0.218
		c0.004,0.005,0.008,0.011,0.014,0.016c0.068,0.079,0.133,0.162,0.193,0.247c0.002,0.004,0.004,0.006,0.006,0.01
		c0.084,0.119,0.16,0.244,0.229,0.375c0.236,0.455,0.371,0.972,0.371,1.52c0,1.82-1.475,3.296-3.295,3.296s-3.297-1.476-3.297-3.296
		C6.908,9.629,7.043,9.112,7.279,8.657z M16.396,15.364c0,0.57-0.463,1.032-1.033,1.032H5.045c-0.568,0-1.031-0.462-1.031-1.032
		V8.657h1.41c-0.152,0.479-0.234,0.99-0.234,1.52c0,2.77,2.246,5.016,5.016,5.016s5.016-2.246,5.016-5.016
		c0-0.529-0.082-1.04-0.234-1.52h1.41V15.364z M16.424,6.069c0,0.448-0.363,0.812-0.811,0.812h-1.303
		c-0.447,0-0.811-0.363-0.811-0.812V4.768c0-0.447,0.363-0.811,0.811-0.811h1.303c0.447,0,0.811,0.363,0.811,0.811V6.069z"/>
</g>
</svg>
