<?xml version="1.0" encoding="utf-8"?>
<!-- Generator: Adobe Illustrator 16.0.4, SVG Export Plug-In . SVG Version: 6.00 Build 0)  -->
<!DOCTYPE svg PUBLIC "-//W3C//DTD SVG 1.1//EN" "http://www.w3.org/Graphics/SVG/1.1/DTD/svg11.dtd">
<svg version="1.1" id="twitter" xmlns="http://www.w3.org/2000/svg" xmlns:xlink="http://www.w3.org/1999/xlink" x="0px" y="0px"
	 width="20.41px" height="20.41px" viewBox="0 0 20.41 20.41" enable-background="new 0 0 20.41 20.41" xml:space="preserve">
<path fill="#FFFFFF" d="M2.077,3.229c0,0,2.898,3.843,7.937,4.108c0,0-0.682-2.27,1.411-4.006c2.092-1.738,4.68-0.267,5.176,0.389
	c0,0,1.473-0.23,2.5-0.921c0,0-0.336,1.327-1.578,2.126c0,0,1.453-0.193,2.127-0.584c0,0-0.709,1.135-1.932,2.003
	c0,0,0.514,4.795-3.607,8.757c-4.122,3.963-10.904,3.138-13.35,1.064c0,0,3.323,0.372,5.663-1.623c0,0-2.765-0.053-3.562-2.633
	c0,0,1.381,0.107,1.621-0.158c0,0-2.979-0.719-3.004-3.83c0,0,0.903,0.453,1.727,0.479C3.206,8.4,0.335,6.326,2.077,3.229z"/>
</svg>
