<?xml version="1.0" encoding="utf-8"?>
<!-- Generator: Adobe Illustrator 16.0.4, SVG Export Plug-In . SVG Version: 6.00 Build 0)  -->
<!DOCTYPE svg PUBLIC "-//W3C//DTD SVG 1.1//EN" "http://www.w3.org/Graphics/SVG/1.1/DTD/svg11.dtd">
<svg version="1.1" id="youtube" xmlns="http://www.w3.org/2000/svg" xmlns:xlink="http://www.w3.org/1999/xlink" x="0px" y="0px"
	 width="20.41px" height="20.41px" viewBox="0 0 20.41 20.41" enable-background="new 0 0 20.41 20.41" xml:space="preserve">
<g>
	<path fill="#FFFFFF" d="M19.653,6.16c-0.303-1.144-0.672-1.85-1.109-2.253c-0.438-0.404-1.346-0.504-8.34-0.504
		s-7.902,0.1-8.338,0.504C1.429,4.311,1.058,5.017,0.757,6.16c-0.305,1.144-0.336,4.035-0.336,4.035c0,3.8,0.67,5.683,1.545,6.321
		c0.875,0.64,8.238,0.471,8.238,0.471s7.365,0.169,8.238-0.471c0.875-0.639,1.547-2.521,1.547-6.321
		C19.989,10.195,19.956,7.304,19.653,6.16z M8.222,13.793V6.597l5.514,3.599L8.222,13.793z"/>
</g>
</svg>
